<?xml version="1.0" encoding="utf-8"?>
<!-- Generator: Adobe Illustrator 18.1.1, SVG Export Plug-In . SVG Version: 6.00 Build 0)  -->
<!DOCTYPE svg PUBLIC "-//W3C//DTD SVG 1.1//EN" "http://www.w3.org/Graphics/SVG/1.1/DTD/svg11.dtd">
<svg version="1.1" xmlns="http://www.w3.org/2000/svg" xmlns:xlink="http://www.w3.org/1999/xlink" x="0px" y="0px"
	 viewBox="0 0 204 32" enable-background="new 0 0 204 32" xml:space="preserve">
<g id="Layer_2">
	<g>
		<g>
			<path fill="#7D858B" d="M713.2025757-390.3174438v832.045166h-790v-832.045166H713.2025757 M714.2025757-391.3174438h-792
				v834.045166h792V-391.3174438L714.2025757-391.3174438z"/>
		</g>
	</g>
</g>
<g id="Layer_1">
	<g>
		<path fill="#257FB9" d="M200.1509399,0H38.4905663l0,0h-34.64151C1.7321223,0-0.0000001,1.7999878-0.0000001,4v24
			c0,2.2000122,1.7321224,4,3.8490565,4h34.64151l0,0h161.6603699C202.2678833,32,204,30.2000122,204,28V4
			C204,1.7999878,202.2678833,0,200.1509399,0z"/>
	</g>
	<g>
		<path fill="#FFFFFF" d="M48.5942116,13.5028181c-0.2988281-0.4013672-0.6669922-0.7021484-1.1064453-0.9033203
			c-0.4384766-0.2001953-0.8955078-0.3007812-1.3710938-0.3007812c-0.5517578,0-1.0576172,0.1123047-1.5195312,0.3359375
			c-0.4619141,0.2246094-0.8613281,0.5253906-1.1972656,0.9033203s-0.5966797,0.8164062-0.7832031,1.3164062
			c-0.1875,0.4990234-0.2802734,1.0195312-0.2802734,1.5605459c0,0.5791016,0.0927734,1.1181641,0.2802734,1.6171875
			c0.1865234,0.4990234,0.4453125,0.9335938,0.7763672,1.3017578c0.3310547,0.3691406,0.7285156,0.6601562,1.1904297,0.875
			s0.9726562,0.3222656,1.5332031,0.3222656c0.6064453,0,1.1474609-0.1191406,1.6230469-0.3574219
			c0.4765625-0.2373047,0.8916016-0.5810547,1.2460938-1.0283203l0.8828125,0.7412109
			c-0.4482422,0.5976562-0.9873047,1.0361328-1.6171875,1.3164062s-1.3417969,0.4199219-2.1347656,0.4199219
			c-0.7099609,0-1.3720703-0.1308594-1.9882812-0.3916016c-0.6162109-0.2617188-1.1503906-0.6230469-1.6035156-1.0849609
			c-0.4521484-0.4619141-0.8066406-1.0107422-1.0634766-1.6455078s-0.3847656-1.3300781-0.3847656-2.0859375
			c0-0.7275381,0.1230469-1.4091787,0.3701172-2.0439444c0.2480469-0.6347656,0.5957031-1.1855469,1.0429688-1.6523438
			c0.4482422-0.4658203,0.9804688-0.8349609,1.5966797-1.1054688s1.2919922-0.40625,2.0302734-0.40625
			c0.671875,0,1.3173828,0.1210938,1.9384766,0.3642578c0.6210938,0.2421875,1.140625,0.6396484,1.5615234,1.1894531
			L48.5942116,13.5028181z"/>
		<path fill="#FFFFFF" d="M50.9321022,18.094614c0-0.5126953,0.0888672-0.9794922,0.265625-1.3994141
			c0.1777344-0.4199219,0.4208984-0.7822256,0.7285156-1.08496c0.3076172-0.3037109,0.6767578-0.5390625,1.1054688-0.7070312
			c0.4296875-0.1679688,0.8964844-0.2519531,1.4003906-0.2519531s0.9707031,0.0839844,1.4003906,0.2519531
			c0.4287109,0.1679688,0.7978516,0.4033203,1.1054688,0.7070312c0.3085938,0.3027344,0.5507812,0.6650381,0.7285156,1.08496
			c0.1767578,0.4199219,0.265625,0.8867188,0.265625,1.3994141c0,0.5136719-0.0888672,0.9804688-0.265625,1.4003906
			c-0.1777344,0.4199219-0.4199219,0.7822266-0.7285156,1.0849609c-0.3076172,0.3037109-0.6767578,0.5390625-1.1054688,0.7070312
			c-0.4296875,0.1679688-0.8964844,0.2519531-1.4003906,0.2519531s-0.9707031-0.0839844-1.4003906-0.2519531
			c-0.4287109-0.1679688-0.7978516-0.4033203-1.1054688-0.7070312c-0.3076172-0.3027344-0.5507812-0.6650391-0.7285156-1.0849609
			C51.0209694,19.0750828,50.9321022,18.6082859,50.9321022,18.094614z M52.1078835,18.094614
			c0,0.3457031,0.0537109,0.6650391,0.1611328,0.9589844s0.2636719,0.5507812,0.46875,0.7705078
			s0.4501953,0.3916016,0.7353516,0.5175781c0.2841797,0.1259766,0.6044922,0.1894531,0.9589844,0.1894531
			s0.6738281-0.0634766,0.9589844-0.1894531c0.2841797-0.1259766,0.5292969-0.2978516,0.7353516-0.5175781
			c0.2050781-0.2197266,0.3613281-0.4765625,0.46875-0.7705078s0.1611328-0.6132812,0.1611328-0.9589844
			c0-0.3447266-0.0537109-0.6650391-0.1611328-0.9589844s-0.2636719-0.5498047-0.46875-0.7695312
			c-0.2060547-0.2197266-0.4511719-0.3925772-0.7353516-0.5185537c-0.2851562-0.1259766-0.6044922-0.1884766-0.9589844-0.1884766
			s-0.6748047,0.0625-0.9589844,0.1884766c-0.2851562,0.1259766-0.5302734,0.2988272-0.7353516,0.5185537
			s-0.3613281,0.4755859-0.46875,0.7695312S52.1078835,17.7498875,52.1078835,18.094614z"/>
		<path fill="#FFFFFF" d="M59.6264381,16.3729343c0-0.2988281-0.0097656-0.578124-0.0283203-0.8398428
			s-0.0283203-0.4990234-0.0283203-0.7138672h1.0361328c0,0.1767578,0.0048828,0.3544922,0.0136719,0.5322266
			c0.0097656,0.1767578,0.0146484,0.359375,0.0146484,0.5458984h0.0273438
			c0.0751953-0.1591797,0.1796875-0.3125,0.3154297-0.4619141c0.1347656-0.1494141,0.2958984-0.2822266,0.4833984-0.3994141
			c0.1865234-0.1162109,0.3964844-0.2099609,0.6298828-0.2802734c0.2333984-0.0693359,0.4853516-0.1044922,0.7558594-0.1044922
			c0.4287109,0,0.7998047,0.0654297,1.1132812,0.1953125c0.3124962,0.1308594,0.5712852,0.3134766,0.7763634,0.546875
			s0.3574219,0.515625,0.4550781,0.8466787c0.0986328,0.3310547,0.1474609,0.6923828,0.1474609,1.0849609v4.0458984H64.245575
			v-3.9335938c0-0.5507812-0.1210938-0.9853516-0.3632774-1.3027344c-0.2431641-0.3164053-0.6210938-0.475585-1.1337891-0.475585
			c-0.3554688,0-0.6611328,0.0605469-0.9169922,0.1816406c-0.2568359,0.1220703-0.4667969,0.2939444-0.6308594,0.5185537
			c-0.1630859,0.2236328-0.2841797,0.4892578-0.3632812,0.7978516c-0.0800781,0.3076172-0.1191406,0.6484375-0.1191406,1.0214844
			v3.1923828h-1.0917969V16.3729343z"/>
		<path fill="#FFFFFF" d="M67.410614,16.3729343c0-0.2988281-0.0097656-0.578124-0.0283203-0.8398428
			s-0.0283203-0.4990234-0.0283203-0.7138672h1.0361328c0,0.1767578,0.0048828,0.3544922,0.0136719,0.5322266
			c0.0097656,0.1767578,0.0146484,0.359375,0.0146484,0.5458984h0.0273438
			c0.0751953-0.1591797,0.1796875-0.3125,0.3154297-0.4619141c0.1347656-0.1494141,0.2958984-0.2822266,0.4833984-0.3994141
			c0.1865234-0.1162109,0.3964844-0.2099609,0.6298828-0.2802734c0.2333984-0.0693359,0.4853516-0.1044922,0.7558594-0.1044922
			c0.4287109,0,0.7998047,0.0654297,1.1132812,0.1953125c0.3125,0.1308594,0.5712891,0.3134766,0.7763672,0.546875
			s0.3574219,0.515625,0.4550781,0.8466787c0.0986328,0.3310547,0.1474609,0.6923828,0.1474609,1.0849609v4.0458984h-1.0927734
			v-3.9335938c0-0.5507812-0.1210938-0.9853516-0.3632812-1.3027344c-0.2431641-0.3164053-0.6210938-0.475585-1.1337891-0.475585
			c-0.3554688,0-0.6611328,0.0605469-0.9169922,0.1816406c-0.2568359,0.1220703-0.4667969,0.2939444-0.6308594,0.5185537
			c-0.1630859,0.2236328-0.2841797,0.4892578-0.3632812,0.7978516c-0.0800781,0.3076172-0.1191406,0.6484375-0.1191406,1.0214844
			v3.1923828H67.410614V16.3729343z"/>
		<path fill="#FFFFFF" d="M81.0463562,20.1805515c-0.3925781,0.5048828-0.8222656,0.8564453-1.2880859,1.0576172
			c-0.4667969,0.2001953-1.0087891,0.3007812-1.6240234,0.3007812c-0.5136719,0-0.9755859-0.0908203-1.3867188-0.2734375
			c-0.4101562-0.1816406-0.7578125-0.4267578-1.0429688-0.734375c-0.2841797-0.3085938-0.5039062-0.671875-0.6572266-1.0917969
			c-0.1542969-0.4199219-0.2314453-0.8681641-0.2314453-1.3447266c0-0.5039062,0.0839844-0.9677734,0.2519531-1.3925781
			s0.4013672-0.7890615,0.7001953-1.0917959c0.2988281-0.3037109,0.6533203-0.5390625,1.0634766-0.7070312
			c0.4111328-0.1679688,0.859375-0.2519531,1.3447266-0.2519531c0.4570312,0,0.8769531,0.0771484,1.2597656,0.2304688
			c0.3828125,0.1542969,0.7119141,0.3779297,0.9873047,0.671875c0.2744141,0.2939453,0.4873047,0.6533194,0.6367188,1.078124
			s0.2236328,0.9082031,0.2236328,1.4492188v0.3496094h-5.2919922c0.0185547,0.2802734,0.0869141,0.5488281,0.203125,0.8056641
			c0.1171875,0.2568359,0.2685547,0.4804688,0.4550781,0.671875s0.40625,0.3427734,0.6582031,0.4550781
			c0.2519531,0.1113281,0.5273438,0.1679688,0.8261719,0.1679688c0.4755859,0,0.8769531-0.0839844,1.2041016-0.2519531
			c0.3261719-0.1679688,0.6201172-0.4150391,0.8818359-0.7421875L81.0463562,20.1805515z M80.1078796,17.5067234
			c-0.0185547-0.5595703-0.2011719-1.0078125-0.5458984-1.34375c-0.3457031-0.3359365-0.8212891-0.5039053-1.4277344-0.5039053
			c-0.6074219,0-1.0966797,0.1679688-1.4707031,0.5039053c-0.3730469,0.3359375-0.5966797,0.7841797-0.671875,1.34375H80.1078796z"
			/>
		<path fill="#FFFFFF" d="M87.6401062,16.4569187c-0.2333984-0.2802734-0.4853516-0.4833975-0.7558594-0.609374
			s-0.5693359-0.1884766-0.8964844-0.1884766c-0.3632812,0-0.6855469,0.0625-0.9658203,0.1884766
			s-0.5107422,0.3017569-0.6923828,0.5253897c-0.1826172,0.2236328-0.3203125,0.4833984-0.4130859,0.7773438
			c-0.09375,0.2939453-0.140625,0.6083984-0.140625,0.9443359s0.0537109,0.6513672,0.1611328,0.9453125
			s0.2568359,0.5527344,0.4482422,0.7773438c0.1914062,0.2236328,0.421875,0.3984375,0.6933594,0.5244141
			c0.2705078,0.1259766,0.5732422,0.1894531,0.9091797,0.1894531c0.71875,0,1.2744141-0.2705078,1.6660156-0.8125l0.8125,0.7705078
			c-0.3173828,0.3642578-0.6914062,0.6298828-1.1201172,0.7978516c-0.4296875,0.1679688-0.8818359,0.2519531-1.3583984,0.2519531
			c-0.5039062,0-0.9658203-0.0839844-1.3857422-0.2519531s-0.7773438-0.40625-1.0712891-0.7138672
			c-0.2939453-0.3085938-0.5224609-0.671875-0.6855469-1.0917969s-0.2451172-0.8828125-0.2451172-1.3867188
			c0-0.4941406,0.0820312-0.9511719,0.2451172-1.3720703c0.1630859-0.4199219,0.3945312-0.7832022,0.6933594-1.0917959
			c0.2978516-0.3076172,0.6552734-0.5478516,1.0703125-0.7207031s0.875-0.2587891,1.3789062-0.2587891
			c0.4853516,0,0.9453125,0.0839844,1.3789062,0.2519531c0.4345703,0.1679688,0.8144531,0.4287109,1.1416016,0.7841797
			L87.6401062,16.4569187z"/>
		<path fill="#FFFFFF" d="M93.3100281,15.7430525h-1.9316406v3.2763662c0,0.2148438,0.0039062,0.4121094,0.0136719,0.5947266
			c0.0097656,0.1816406,0.046875,0.3408203,0.1123047,0.4755859c0.0654297,0.1357422,0.1630859,0.2431641,0.2939453,0.3222656
			s0.3173828,0.1191406,0.5595703,0.1191406c0.1591797,0,0.3222656-0.0185547,0.4902344-0.0566406
			c0.1679688-0.0371094,0.3261719-0.0927734,0.4755859-0.1679688l0.0419922,0.9941406
			c-0.1865234,0.0839844-0.3935547,0.1445312-0.6220703,0.1826172c-0.2294922,0.0371094-0.4462891,0.0556641-0.6513672,0.0556641
			c-0.3925781,0-0.7050781-0.0517578-0.9384766-0.1542969s-0.4150391-0.2470703-0.5458984-0.4335938
			s-0.2167969-0.4179688-0.2587891-0.6933594s-0.0625-0.5810547-0.0625-0.9169922v-3.5976553h-1.4287109v-0.9238281h1.4287109
			v-1.8623047h1.0917969v1.8623047h1.9316406V15.7430525z"/>
		<path fill="#FFFFFF" d="M105.5737,21.3709812h-1.078125l-1.8613281-5.0400391h-0.0283203l-1.6523438,5.0400391h-1.1191406
			l-2.1289062-6.5517569h1.2041016l1.4980469,5.0400381h0.0283203l1.6943359-5.0400381h1.1474609l1.7226562,5.0400381h0.0273438
			l1.484375-5.0400381h1.1757812L105.5737,21.3709812z"/>
		<path fill="#FFFFFF" d="M108.7660828,12.2567244c0-0.2138672,0.0771484-0.4013672,0.2304688-0.5595703
			c0.1542969-0.1591797,0.34375-0.2382812,0.5673828-0.2382812s0.4130859,0.0791016,0.5673828,0.2382812
			c0.1533203,0.1582031,0.2304688,0.3457031,0.2304688,0.5595703c0,0.2333984-0.0742188,0.4248047-0.2236328,0.5742188
			s-0.3408203,0.2236328-0.5742188,0.2236328s-0.4248047-0.0742188-0.5742188-0.2236328
			S108.7660828,12.4901228,108.7660828,12.2567244z M109.0180359,14.8192244h1.0917969v6.5517569h-1.0917969V14.8192244z"/>
		<path fill="#FFFFFF" d="M115.863739,15.7430525h-1.9326172v3.2763662c0,0.2148438,0.0048828,0.4121094,0.0146484,0.5947266
			c0.0087891,0.1816406,0.0458984,0.3408203,0.1113281,0.4755859c0.0654297,0.1357422,0.1630859,0.2431641,0.2939453,0.3222656
			s0.3173828,0.1191406,0.5605469,0.1191406c0.1582031,0,0.3222656-0.0185547,0.4902344-0.0566406
			c0.1679688-0.0371094,0.3261719-0.0927734,0.4755859-0.1679688l0.0419922,0.9941406
			c-0.1865234,0.0839844-0.3945312,0.1445312-0.6230469,0.1826172c-0.2285156,0.0371094-0.4453125,0.0556641-0.6513672,0.0556641
			c-0.3916016,0-0.7041016-0.0517578-0.9375-0.1542969s-0.4150391-0.2470703-0.5458984-0.4335938
			s-0.2167969-0.4179688-0.2587891-0.6933594s-0.0634766-0.5810547-0.0634766-0.9169922v-3.5976553h-1.4277344v-0.9238281h1.4277344
			v-1.8623047h1.0917969v1.8623047h1.9326172V15.7430525z"/>
		<path fill="#FFFFFF" d="M117.207489,10.7869978h1.0917969v4.9423828h0.0283203
			c0.0742188-0.1308594,0.1767578-0.2597656,0.3076172-0.3857422s0.2871094-0.2402344,0.4697266-0.3427734
			c0.1816406-0.1025391,0.3847656-0.1865234,0.6083984-0.2519531c0.2246094-0.0654297,0.4619141-0.0976562,0.7138672-0.0976562
			c0.4296875,0,0.8007812,0.0654297,1.1132812,0.1953125c0.3125,0.1308594,0.5712891,0.3134766,0.7773438,0.546875
			c0.2050781,0.2333984,0.3564453,0.515625,0.4550781,0.8466787c0.0976562,0.3310547,0.1464844,0.6923828,0.1464844,1.0849609
			v4.0458984h-1.0917969v-3.9335938c0-0.5507812-0.1210938-0.9853516-0.3642578-1.3027344
			c-0.2421875-0.3164053-0.6201172-0.475585-1.1337891-0.475585c-0.3544922,0-0.6601562,0.0605469-0.9169922,0.1816406
			c-0.2568359,0.1220703-0.4667969,0.2939444-0.6298828,0.5185537c-0.1630859,0.2236328-0.2851562,0.4892578-0.3642578,0.7978516
			c-0.0791016,0.3076172-0.1191406,0.6484375-0.1191406,1.0214844v3.1923828h-1.0917969V10.7869978z"/>
		<path fill="#FFFFFF" d="M132.2992859,11.4588728h1.1064453l4.2138672,9.9121084h-1.3720703l-1.0078125-2.4355469h-4.9560547
			L129.2612,21.3709812h-1.3300781L132.2992859,11.4588728z M132.8315125,12.9705915h-0.0283203l-2.0576172,4.8720694h4.0458984
			L132.8315125,12.9705915z"/>
		<path fill="#FFFFFF" d="M144.4516296,19.8172703c0,0.2988281,0.0087891,0.578125,0.0273438,0.8398438
			s0.0283203,0.4990234,0.0283203,0.7138672h-1.0361328c0-0.1767578-0.0048828-0.3544922-0.0136719-0.5322266
			c-0.0097656-0.1767578-0.0136719-0.359375-0.0136719-0.5458984h-0.0283203
			c-0.0751953,0.1591797-0.1796875,0.3125-0.3154297,0.4619141c-0.1347656,0.1494141-0.2958984,0.2822266-0.4824219,0.3994141
			c-0.1875,0.1162109-0.3974609,0.2099609-0.6298828,0.2802734c-0.2333984,0.0693359-0.4853516,0.1044922-0.7568359,0.1044922
			c-0.4287109,0-0.7998047-0.0654297-1.1123047-0.1962891c-0.3134766-0.1298828-0.5722656-0.3125-0.7773438-0.5458984
			s-0.3574219-0.515625-0.4550781-0.8466797s-0.1464844-0.6933594-0.1464844-1.0849609v-4.0458975h1.0917969v3.9335928
			c0,0.5507812,0.1210938,0.9853516,0.3642578,1.3017578c0.2421875,0.3173828,0.6201172,0.4765625,1.1337891,0.4765625
			c0.3544922,0,0.6601562-0.0605469,0.9169922-0.1826172c0.2568359-0.1210938,0.4667969-0.2939453,0.6298828-0.5175781
			s0.2841797-0.4902344,0.3642578-0.7978516c0.0791016-0.3085938,0.1181641-0.6484375,0.1181641-1.0224609v-3.1914053h1.0927734
			V19.8172703z"/>
		<path fill="#FFFFFF" d="M150.1078796,15.7430525h-1.9326172v3.2763662c0,0.2148438,0.0048828,0.4121094,0.0146484,0.5947266
			c0.0087891,0.1816406,0.0458984,0.3408203,0.1113281,0.4755859c0.0654297,0.1357422,0.1630859,0.2431641,0.2939453,0.3222656
			s0.3173828,0.1191406,0.5605469,0.1191406c0.1582031,0,0.3222656-0.0185547,0.4902344-0.0566406
			c0.1679688-0.0371094,0.3261719-0.0927734,0.4755859-0.1679688l0.0419922,0.9941406
			c-0.1865234,0.0839844-0.3945312,0.1445312-0.6230469,0.1826172c-0.2285156,0.0371094-0.4453125,0.0556641-0.6513672,0.0556641
			c-0.3916016,0-0.7041016-0.0517578-0.9375-0.1542969s-0.4150391-0.2470703-0.5458984-0.4335938
			s-0.2167969-0.4179688-0.2587891-0.6933594s-0.0634766-0.5810547-0.0634766-0.9169922v-3.5976553h-1.4277344v-0.9238281h1.4277344
			v-1.8623047h1.0917969v1.8623047h1.9326172V15.7430525z"/>
		<path fill="#FFFFFF" d="M151.0737,18.094614c0-0.5126953,0.0878906-0.9794922,0.265625-1.3994141
			c0.1767578-0.4199219,0.4199219-0.7822256,0.7275391-1.08496c0.3085938-0.3037109,0.6767578-0.5390625,1.1064453-0.7070312
			c0.4287109-0.1679688,0.8955078-0.2519531,1.4003906-0.2519531c0.5039062,0,0.9697266,0.0839844,1.3994141,0.2519531
			s0.7978516,0.4033203,1.1064453,0.7070312c0.3076172,0.3027344,0.5498047,0.6650381,0.7275391,1.08496
			S158.0737,17.5819187,158.0737,18.094614c0,0.5136719-0.0888672,0.9804688-0.2666016,1.4003906
			s-0.4199219,0.7822266-0.7275391,1.0849609c-0.3085938,0.3037109-0.6767578,0.5390625-1.1064453,0.7070312
			S155.0776062,21.53895,154.5737,21.53895c-0.5048828,0-0.9716797-0.0839844-1.4003906-0.2519531
			c-0.4296875-0.1679688-0.7978516-0.4033203-1.1064453-0.7070312c-0.3076172-0.3027344-0.5507812-0.6650391-0.7275391-1.0849609
			C151.1615906,19.0750828,151.0737,18.6082859,151.0737,18.094614z M152.2494812,18.094614
			c0,0.3457031,0.0537109,0.6650391,0.1611328,0.9589844c0.1064453,0.2939453,0.2636719,0.5507812,0.46875,0.7705078
			s0.4501953,0.3916016,0.7353516,0.5175781c0.2841797,0.1259766,0.6035156,0.1894531,0.9589844,0.1894531
			c0.3544922,0,0.6738281-0.0634766,0.9589844-0.1894531c0.2841797-0.1259766,0.5292969-0.2978516,0.734375-0.5175781
			s0.3613281-0.4765625,0.46875-0.7705078s0.1611328-0.6132812,0.1611328-0.9589844
			c0-0.3447266-0.0537109-0.6650391-0.1611328-0.9589844s-0.2636719-0.5498047-0.46875-0.7695312
			s-0.4501953-0.3925772-0.734375-0.5185537c-0.2851562-0.1259766-0.6044922-0.1884766-0.9589844-0.1884766
			c-0.3554688,0-0.6748047,0.0625-0.9589844,0.1884766c-0.2851562,0.1259766-0.5302734,0.2988272-0.7353516,0.5185537
			s-0.3623047,0.4755859-0.46875,0.7695312C152.3031921,17.429575,152.2494812,17.7498875,152.2494812,18.094614z"/>
		<path fill="#FFFFFF" d="M159.7670593,16.3729343c0-0.2988281-0.0097656-0.578124-0.0283203-0.8398428
			s-0.0273438-0.4990234-0.0273438-0.7138672h1.0361328c0,0.1767578,0.0039062,0.3544922,0.0136719,0.5322266
			c0.0087891,0.1767578,0.0136719,0.359375,0.0136719,0.5458984h0.0283203
			c0.0742188-0.1591797,0.1796875-0.3125,0.3154297-0.4619141c0.1347656-0.1494141,0.2958984-0.2822266,0.4824219-0.3994141
			c0.1865234-0.1162109,0.3964844-0.2099609,0.6298828-0.2802734c0.2333984-0.0693359,0.4853516-0.1044922,0.7558594-0.1044922
			c0.3544922,0,0.6513672,0.0439453,0.8896484,0.1328125c0.2373047,0.0888672,0.4355469,0.1962891,0.5947266,0.3222656
			c0.1582031,0.1259766,0.2822266,0.2607422,0.3710938,0.4052734c0.0888672,0.1455078,0.1611328,0.2734375,0.2167969,0.3857422
			c0.2431641-0.3925781,0.5224609-0.6982422,0.8398438-0.9169922c0.3173828-0.2197266,0.7285156-0.3291016,1.2324219-0.3291016
			c0.4667969,0,0.8583984,0.0625,1.1757812,0.1884766s0.5742188,0.3085938,0.7705078,0.5458984
			c0.1953125,0.2382812,0.3359375,0.5273438,0.4199219,0.8681631c0.0839844,0.3408203,0.1259766,0.7207031,0.1259766,1.1416016
			v3.9755859h-1.0927734v-3.9199219c0-0.2236328-0.0234375-0.4433594-0.0693359-0.6582031
			c-0.046875-0.2148438-0.1308594-0.40625-0.2519531-0.5742188c-0.1220703-0.1679688-0.2851562-0.3027334-0.4902344-0.4052725
			s-0.4667969-0.1542969-0.7841797-0.1542969c-0.2333984,0-0.453125,0.046875-0.6582031,0.1396484
			c-0.2050781,0.09375-0.3847656,0.2246084-0.5390625,0.3925772c-0.1533203,0.1679688-0.2753906,0.3710938-0.3632812,0.6083984
			c-0.0888672,0.2382812-0.1337891,0.5019531-0.1337891,0.7910156v3.7802734h-1.0917969v-3.7099609
			c0-0.7285156-0.0976562-1.2431641-0.2939453-1.546875c-0.1953125-0.30371-0.5175781-0.4550772-0.9658203-0.4550772
			c-0.3544922,0-0.6601562,0.0605469-0.9169922,0.1816406c-0.2568359,0.1220703-0.4667969,0.2939444-0.6298828,0.5185537
			c-0.1630859,0.2236328-0.2851562,0.4892578-0.3642578,0.7978516c-0.0791016,0.3076172-0.1191406,0.6484375-0.1191406,1.0214844
			v3.1923828h-1.0917969V16.3729343z"/>
		<path fill="#FFFFFF" d="M171.6108093,15.6590681c0.3359375-0.3457031,0.7353516-0.5996094,1.1972656-0.7626953
			c0.4619141-0.1640625,0.9306641-0.2451172,1.4072266-0.2451172c0.9697266,0,1.6699219,0.2285156,2.0996094,0.6855469
			c0.4287109,0.4580078,0.6435547,1.1533194,0.6435547,2.0859365v2.8144531c0,0.1865234,0.0097656,0.3798828,0.0283203,0.5810547
			c0.0185547,0.2001953,0.0419922,0.3847656,0.0703125,0.5527344h-1.0498047
			c-0.0380859-0.1494141-0.0585938-0.3154297-0.0634766-0.4970703s-0.0068359-0.3427734-0.0068359-0.4833984h-0.0283203
			c-0.2148438,0.3369141-0.5019531,0.6123047-0.8603516,0.8261719c-0.359375,0.2148438-0.7910156,0.3222656-1.2949219,0.3222656
			c-0.3369141,0-0.6513672-0.0419922-0.9453125-0.1259766s-0.5507812-0.2080078-0.7705078-0.3710938
			c-0.21875-0.1630859-0.3945312-0.3662109-0.5244141-0.609375c-0.1308594-0.2421875-0.1962891-0.5224609-0.1962891-0.8398438
			c0-0.5410156,0.1396484-0.9658203,0.4199219-1.2734375c0.2802734-0.3085938,0.6279297-0.5371094,1.0429688-0.6865234
			c0.4150391-0.1484375,0.8632812-0.2421875,1.34375-0.2792969c0.4814453-0.0380859,0.921875-0.0566406,1.3232422-0.0566406
			h0.4199219V17.10145c0-0.4765625-0.1425781-0.8359375-0.4267578-1.078125
			c-0.2851562-0.2431631-0.6835938-0.3642569-1.1972656-0.3642569c-0.3544922,0-0.7021484,0.0585938-1.0429688,0.1748047
			c-0.3408203,0.1171875-0.6416016,0.296874-0.9023438,0.5390615L171.6108093,15.6590681z M174.7748718,18.2205906
			c-0.7001953,0-1.2558594,0.0986328-1.6660156,0.2939453c-0.4111328,0.1962891-0.6162109,0.5185547-0.6162109,0.9667969
			c0,0.4101562,0.1376953,0.7021484,0.4130859,0.875s0.6181641,0.2587891,1.0292969,0.2587891
			c0.3173828,0,0.5947266-0.0537109,0.8330078-0.1611328s0.4365234-0.25,0.5947266-0.4267578
			c0.1591797-0.1777344,0.2802734-0.3847656,0.3642578-0.6230469s0.1308594-0.4921875,0.1396484-0.7636719v-0.4199219H174.7748718z"
			/>
		<path fill="#FFFFFF" d="M182.5453796,15.7430525h-1.9326172v3.2763662c0,0.2148438,0.0048828,0.4121094,0.0146484,0.5947266
			c0.0087891,0.1816406,0.0458984,0.3408203,0.1113281,0.4755859c0.0654297,0.1357422,0.1630859,0.2431641,0.2939453,0.3222656
			s0.3173828,0.1191406,0.5605469,0.1191406c0.1582031,0,0.3222656-0.0185547,0.4902344-0.0566406
			c0.1679688-0.0371094,0.3261719-0.0927734,0.4755859-0.1679688l0.0419922,0.9941406
			c-0.1865234,0.0839844-0.3945312,0.1445312-0.6230469,0.1826172c-0.2285156,0.0371094-0.4453125,0.0556641-0.6513672,0.0556641
			c-0.3916016,0-0.7041016-0.0517578-0.9375-0.1542969s-0.4150391-0.2470703-0.5458984-0.4335938
			s-0.2167969-0.4179688-0.2587891-0.6933594s-0.0634766-0.5810547-0.0634766-0.9169922v-3.5976553h-1.4277344v-0.9238281h1.4277344
			v-1.8623047h1.0917969v1.8623047h1.9326172V15.7430525z"/>
		<path fill="#FFFFFF" d="M183.7348328,12.2567244c0-0.2138672,0.0771484-0.4013672,0.2304688-0.5595703
			c0.1542969-0.1591797,0.34375-0.2382812,0.5673828-0.2382812s0.4130859,0.0791016,0.5673828,0.2382812
			c0.1533203,0.1582031,0.2304688,0.3457031,0.2304688,0.5595703c0,0.2333984-0.0742188,0.4248047-0.2236328,0.5742188
			s-0.3408203,0.2236328-0.5742188,0.2236328s-0.4248047-0.0742188-0.5742188-0.2236328
			S183.7348328,12.4901228,183.7348328,12.2567244z M183.9867859,14.8192244h1.0917969v6.5517569h-1.0917969V14.8192244z"/>
		<path fill="#FFFFFF" d="M191.910614,16.4569187c-0.2333984-0.2802734-0.4853516-0.4833975-0.7558594-0.609374
			s-0.5693359-0.1884766-0.8964844-0.1884766c-0.3632812,0-0.6855469,0.0625-0.9658203,0.1884766
			s-0.5107422,0.3017569-0.6923828,0.5253897c-0.1826172,0.2236328-0.3203125,0.4833984-0.4130859,0.7773438
			c-0.09375,0.2939453-0.140625,0.6083984-0.140625,0.9443359s0.0537109,0.6513672,0.1611328,0.9453125
			s0.2568359,0.5527344,0.4482422,0.7773438c0.1914062,0.2236328,0.421875,0.3984375,0.6933594,0.5244141
			c0.2705078,0.1259766,0.5732422,0.1894531,0.9091797,0.1894531c0.71875,0,1.2744141-0.2705078,1.6660156-0.8125l0.8125,0.7705078
			c-0.3173828,0.3642578-0.6914062,0.6298828-1.1201172,0.7978516c-0.4296875,0.1679688-0.8818359,0.2519531-1.3583984,0.2519531
			c-0.5039062,0-0.9658203-0.0839844-1.3857422-0.2519531s-0.7773438-0.40625-1.0712891-0.7138672
			c-0.2939453-0.3085938-0.5224609-0.671875-0.6855469-1.0917969s-0.2451172-0.8828125-0.2451172-1.3867188
			c0-0.4941406,0.0820312-0.9511719,0.2451172-1.3720703c0.1630859-0.4199219,0.3945312-0.7832022,0.6933594-1.0917959
			c0.2978516-0.3076172,0.6552734-0.5478516,1.0703125-0.7207031s0.875-0.2587891,1.3789062-0.2587891
			c0.4853516,0,0.9453125,0.0839844,1.3789062,0.2519531c0.4345703,0.1679688,0.8144531,0.4287109,1.1416016,0.7841797
			L191.910614,16.4569187z"/>
	</g>
	<g>
		<path fill="#FFFFFF" d="M9.9999285,11.7851992c0-0.7432661,0.5270977-1.6557255,1.1704121-2.0278664l7.6591692-4.4228277
			c0.6437416-0.371861,1.6970997-0.371861,2.340971,0l7.6588898,4.4228277
			c0.643446,0.3721409,1.1705589,1.2846003,1.1705589,2.0278664v8.8406553c0,0.7434139-0.527113,1.6562996-1.171133,2.0277195
			l-7.6580219,4.4219742c-0.644165,0.3717003-1.6975231,0.3717003-2.3418369,0l-7.6581697-4.4219742
			c-0.6437416-0.3714199-1.1708393-1.2843056-1.1708393-2.0277195V11.7851992z"/>
		<path fill="#257FB9" d="M23.1887283,20.9610786L22.550869,19.675333h-5.1123829l-0.6272087,1.2857456H13.758337
			l5.0186081-10.2560911c0.2819405-0.5647335,0.7209988-0.8364811,1.2228298-0.8364811
			c0.5021267,0,0.9623032,0.303339,1.2235641,0.8259945l5.0181675,10.2665777H23.1887283z M21.3698387,17.2494698
			l-1.3700638-2.8331671l-1.3693295,2.8331671H21.3698387z"/>
		<path fill="#52B6ED" d="M24.1087914,19.6960106l-4.1090164-8.3534594v2.3000259l2.3419857,4.8096323h-5.8441772
			l3.5021915-7.1096582V10.192524c-0.4492512,0.0314589-0.7001743,0.2718954-0.9197826,0.6589632l-4.7780275,9.754262h2.2897024
			l-0.7004681-0.8887653l0.6063843-1.2647743l0.7212925,0.8884716h5.5514565l0.6276512,1.2650681h2.3000412L24.1087914,19.6960106z"
			/>
	</g>
</g>
</svg>
