<?xml version="1.0" encoding="utf-8"?>
<!-- Generator: Adobe Illustrator 18.1.1, SVG Export Plug-In . SVG Version: 6.00 Build 0)  -->
<!DOCTYPE svg PUBLIC "-//W3C//DTD SVG 1.1//EN" "http://www.w3.org/Graphics/SVG/1.1/DTD/svg11.dtd">
<svg version="1.1" xmlns="http://www.w3.org/2000/svg" xmlns:xlink="http://www.w3.org/1999/xlink" x="0px" y="0px"
	 viewBox="0 0 174 56" enable-background="new 0 0 174 56" xml:space="preserve">
<g id="Layer_2">
</g>
<g id="Layer_1">
	<g>
		<path fill="#52B6ED" d="M170.175827,0.000005H34.4175873H3.8241808c-2.10325,0-3.8241758,1.7999878-3.8241758,3.9999998v20
			c0,2.2000122,1.7209258,4,3.8241758,4h30.5934067H170.175827c2.1032562,0,3.824173-1.7999878,3.824173-4v-20
			C174,1.7999928,172.2790833,0.000005,170.175827,0.000005z"/>
	</g>
	<g>
		<path fill="#FFFFFF" d="M9.0000048,10.0222149c0-0.6689396,0.4743881-1.4901533,1.0533714-1.8250799l6.8932524-3.980545
			c0.5793667-0.3346748,1.5273895-0.3346748,2.1068726,0l6.8930016,3.980545
			c0.5791016,0.3349266,1.053503,1.1561403,1.053503,1.8250799v7.9565907c0,0.6690712-0.4744015,1.4906693-1.0540199,1.8249454
			l-6.8922195,3.9797783c-0.5797482,0.3345299-1.527771,0.3345299-2.1076527,0l-6.892354-3.9797783
			c-0.5793667-0.3342762-1.0537548-1.1558743-1.0537548-1.8249454V10.0222149z"/>
		<path fill="#52B6ED" d="M20.8699245,18.2805061l-0.5740719-1.1571712h-4.6011448l-0.5644894,1.1571712h-2.7476463
			l4.5167484-9.2304821c0.253746-0.5082598,0.6488991-0.7528334,1.1005459-0.7528334
			c0.4519138,0,0.8660717,0.2730055,1.1012077,0.7433958l4.5163498,9.2399197H20.8699245z M19.2329235,14.9400587
			l-1.233057-2.5498514l-1.2323971,2.5498514H19.2329235z"/>
		<path fill="#83CAF1" d="M21.6979809,17.1419449l-3.6981144-7.5181131v2.0700235l2.1077862,4.3286686h-5.259758
			l3.1519718-6.3986921V8.5888071c-0.4043255,0.0283127-0.6301556,0.2447052-0.8278046,0.5930672l-4.3002243,8.7788363h2.0607309
			L14.3021479,17.16082l0.5457468-1.1382961l0.6491632,0.7996254h4.9963102l0.5648861,1.1385612h2.0700378L21.6979809,17.1419449z"
			/>
	</g>
	<g>
		<path fill="#FFFFFF" d="M44.7967148,17.1935215c-0.3359375,0.4560547-0.7724609,0.8261719-1.3085938,1.1103516
			c-0.5351562,0.2841797-1.1796875,0.4257812-1.9316406,0.4257812c-0.6484375,0-1.2460938-0.1103516-1.7939453-0.3300781
			s-1.0205078-0.5273438-1.4160156-0.9238281c-0.3955078-0.3955078-0.7060547-0.8681641-0.9306641-1.4160156
			c-0.2236328-0.5478506-0.3359375-1.1494131-0.3359375-1.8056631c0-0.6640625,0.1142578-1.2705078,0.3417969-1.8183594
			c0.2285156-0.5478516,0.5449219-1.015625,0.9492188-1.4042969c0.4033203-0.3876953,0.8808594-0.6894531,1.4335938-0.9052734
			c0.5517578-0.2158203,1.1523438-0.3242188,1.7998047-0.3242188c0.2880859,0,0.5800781,0.0283203,0.8759766,0.0839844
			s0.5800781,0.1396484,0.8515625,0.2519531c0.2724609,0.1123047,0.5205078,0.25,0.7441406,0.4140625
			c0.2246094,0.1640625,0.4160156,0.3535156,0.5761719,0.5703125L43.7166367,11.84196
			c-0.2089844-0.2880859-0.5019531-0.5263672-0.8828125-0.7138672c-0.3789062-0.1884766-0.7890625-0.2822266-1.2294922-0.2822266
			c-0.4960938,0-0.9423828,0.0898438-1.3378906,0.2695312c-0.3955078,0.1806641-0.734375,0.4267578-1.0146484,0.7382812
			c-0.2792969,0.3125-0.4960938,0.6738281-0.6474609,1.0859375s-0.2275391,0.8505859-0.2275391,1.3144531
			c0,0.4794922,0.0732422,0.9277344,0.2216797,1.34375c0.1474609,0.4160147,0.3603516,0.7783194,0.6357422,1.0859365
			c0.2753906,0.3085938,0.6123047,0.5498047,1.0078125,0.7265625c0.3964844,0.1757812,0.8378906,0.2636719,1.3261719,0.2636719
			c0.4804688,0,0.9160156-0.0957031,1.3085938-0.2880859c0.3916016-0.1923828,0.7148438-0.4716797,0.9716797-0.8398438
			L44.7967148,17.1935215z"/>
		<path fill="#FFFFFF" d="M51.503746,15.6573896c0,0.4404287-0.078125,0.8447256-0.2333984,1.2128897
			c-0.15625,0.3671875-0.3720703,0.6855469-0.6474609,0.953125c-0.2763672,0.2685547-0.6025391,0.4765625-0.9785156,0.6240234
			c-0.3759766,0.1484375-0.7802734,0.2226562-1.2119141,0.2226562c-0.4326172,0-0.8369141-0.0742188-1.2119141-0.2226562
			c-0.3769531-0.1474609-0.7001953-0.3554688-0.9726562-0.6240234c-0.2714844-0.2675781-0.4853516-0.5859375-0.6416016-0.953125
			c-0.1552734-0.3681641-0.2333984-0.7724609-0.2333984-1.2128897c0-0.4394531,0.078125-0.8417969,0.2333984-1.2050781
			c0.15625-0.3642578,0.3701172-0.6787109,0.6416016-0.9423828c0.2724609-0.2636719,0.5957031-0.4697266,0.9726562-0.6181641
			c0.375-0.1474609,0.7792969-0.2216797,1.2119141-0.2216797c0.4316406,0,0.8359375,0.0742188,1.2119141,0.2216797
			c0.3759766,0.1484375,0.7021484,0.3544922,0.9785156,0.6181641c0.2753906,0.2636719,0.4912109,0.578125,0.6474609,0.9423828
			C51.425621,14.8155928,51.503746,15.2179365,51.503746,15.6573896z M50.3279648,15.6642256
			c0-0.2714844-0.0419922-0.53125-0.1259766-0.7783203c-0.0849609-0.2470703-0.2060547-0.4638672-0.3671875-0.6513672
			s-0.359375-0.3369141-0.5957031-0.4492188c-0.2373047-0.1113281-0.5078125-0.1679688-0.8134766-0.1679688
			c-0.3046875,0-0.5751953,0.0566406-0.8125,0.1679688c-0.2363281,0.1123047-0.4355469,0.2617188-0.5957031,0.4492188
			s-0.2832031,0.4042969-0.3671875,0.6513672s-0.1259766,0.5068359-0.1259766,0.7783203
			c0,0.2705078,0.0419922,0.5302725,0.1259766,0.7773428s0.2070312,0.4667969,0.3671875,0.6582031
			s0.359375,0.3427734,0.5957031,0.4550781c0.2373047,0.1113281,0.5078125,0.1669922,0.8125,0.1669922
			c0.3056641,0,0.5761719-0.0556641,0.8134766-0.1669922c0.2363281-0.1123047,0.4345703-0.2636719,0.5957031-0.4550781
			s0.2822266-0.4111328,0.3671875-0.6582031C50.2859726,16.1944981,50.3279648,15.9347334,50.3279648,15.6642256z"/>
		<path fill="#FFFFFF" d="M53.8806992,12.8253584c0.015625,0.1445312,0.0273438,0.3066406,0.0351562,0.4863281
			s0.0117188,0.3300781,0.0117188,0.4501953h0.0371094c0.0712891-0.1523438,0.1699219-0.2939453,0.2929688-0.4257812
			c0.125-0.1318359,0.265625-0.2480469,0.4257812-0.3486328c0.1601562-0.0996094,0.3359375-0.1777344,0.5292969-0.2333984
			c0.1914062-0.0556641,0.390625-0.0839844,0.5996094-0.0839844c0.3671875,0,0.6835938,0.0615234,0.9472656,0.1855469
			c0.2646484,0.1240234,0.484375,0.2900391,0.6601562,0.4980469s0.3066406,0.4521484,0.390625,0.7324219
			s0.125,0.5800781,0.125,0.8994141v3.5283194h-1.1269531v-3.156249c0-0.2314453-0.0185547-0.4511719-0.0546875-0.6601562
			c-0.0351562-0.2080078-0.1015625-0.3916016-0.1972656-0.5517578c-0.0966797-0.1601562-0.2285156-0.2880859-0.3964844-0.3837891
			s-0.3837891-0.1445312-0.6484375-0.1445312c-0.4472656,0-0.8134766,0.1708984-1.0976562,0.5107422
			s-0.4257812,0.7939453-0.4257812,1.3613281v3.0244131h-1.1279297v-4.4638662c0-0.1523438-0.0048828-0.3476562-0.0126953-0.5878906
			s-0.0195312-0.4521484-0.0351562-0.6367188H53.8806992z"/>
		<path fill="#FFFFFF" d="M60.659996,12.8253584c0.015625,0.1445312,0.0273438,0.3066406,0.0351562,0.4863281
			s0.0126953,0.3300781,0.0126953,0.4501953h0.0361328c0.0722656-0.1523438,0.1699219-0.2939453,0.2939453-0.4257812
			s0.265625-0.2480469,0.4257812-0.3486328c0.1601562-0.0996094,0.3359375-0.1777344,0.5283203-0.2333984
			c0.1914062-0.0556641,0.3916016-0.0839844,0.5996094-0.0839844c0.3681641,0,0.6835938,0.0615234,0.9482422,0.1855469
			s0.4833984,0.2900391,0.6601562,0.4980469c0.1757812,0.2080078,0.3056641,0.4521484,0.3896484,0.7324219
			s0.1259766,0.5800781,0.1259766,0.8994141v3.5283194h-1.1279297v-3.156249c0-0.2314453-0.0175781-0.4511719-0.0537109-0.6601562
			c-0.0361328-0.2080078-0.1025391-0.3916016-0.1982422-0.5517578s-0.2285156-0.2880859-0.3964844-0.3837891
			s-0.3828125-0.1445312-0.6474609-0.1445312c-0.4482422,0-0.8134766,0.1708984-1.0986328,0.5107422
			c-0.2832031,0.3398438-0.4257812,0.7939453-0.4257812,1.3613281v3.0244131h-1.1269531v-4.4638662
			c0-0.1523438-0.0048828-0.3476562-0.0126953-0.5878906s-0.0205078-0.4521484-0.0361328-0.6367188H60.659996z"/>
		<path fill="#FFFFFF" d="M71.7361679,15.6222334c0,0.0634766,0,0.1279297,0,0.1914062
			c0,0.0644531-0.0048828,0.1279297-0.0126953,0.1923819h-4.5244141c0.0078125,0.2382812,0.0625,0.4628906,0.1621094,0.6728516
			c0.1005859,0.2109375,0.234375,0.3935547,0.4023438,0.5488281c0.1679688,0.1542969,0.3613281,0.2753906,0.5820312,0.3632812
			c0.2207031,0.0869141,0.4541016,0.1308594,0.7021484,0.1308594c0.3837891,0,0.7158203-0.0839844,0.9960938-0.2519531
			s0.4990234-0.3720703,0.6591797-0.6123047l0.7929688,0.6367188c-0.3046875,0.4023438-0.6621094,0.6992188-1.0742188,0.8896484
			s-0.8701172,0.2861328-1.3740234,0.2861328c-0.4326172,0-0.8320312-0.0722656-1.2001953-0.2158203
			c-0.3681641-0.1445312-0.6835938-0.3466797-0.9472656-0.6064453c-0.2646484-0.2597656-0.4726562-0.5742188-0.625-0.9423828
			c-0.1523438-0.3671875-0.2275391-0.7753906-0.2275391-1.2236319c0-0.4394531,0.0732422-0.8457031,0.2216797-1.2177734
			s0.3554688-0.6904297,0.6201172-0.9541016s0.5771484-0.4697266,0.9384766-0.6181641
			c0.3603516-0.1474609,0.7490234-0.2216797,1.1660156-0.2216797c0.4160156,0,0.7949219,0.0673828,1.1367188,0.2041016
			c0.3398438,0.1357422,0.6289062,0.3320312,0.8652344,0.5878906s0.4189453,0.5654297,0.546875,0.9296875
			C71.6717148,14.7560225,71.7361679,15.1661787,71.7361679,15.6222334z M70.5838242,15.1661787
			c-0.0078125-0.2246094-0.046875-0.4345703-0.1142578-0.6298828c-0.0673828-0.1962891-0.1679688-0.3662109-0.2998047-0.5107422
			c-0.1328125-0.1435547-0.296875-0.2578125-0.4921875-0.3417969c-0.1962891-0.0839844-0.4257812-0.1259766-0.6894531-0.1259766
			c-0.2402344,0-0.4667969,0.0419922-0.6787109,0.1259766s-0.3955078,0.1982422-0.5517578,0.3417969
			c-0.15625,0.1445312-0.2841797,0.3144531-0.3847656,0.5107422c-0.0996094,0.1953125-0.1572266,0.4052734-0.1738281,0.6298828
			H70.5838242z"/>
		<path fill="#FFFFFF" d="M77.0760117,14.2657881c-0.1210938-0.1835938-0.3007812-0.3378906-0.5410156-0.4619141
			s-0.4960938-0.1865234-0.7675781-0.1865234c-0.2958984,0-0.5585938,0.0566406-0.7861328,0.1689453
			c-0.2275391,0.1113281-0.421875,0.2617188-0.5820312,0.4492188c-0.1591797,0.1884766-0.2822266,0.40625-0.3662109,0.6542969
			s-0.125,0.5078125-0.125,0.7802734c0,0.2714844,0.0410156,0.5322256,0.125,0.7792959
			c0.0839844,0.2480469,0.2070312,0.4667969,0.3662109,0.6542969c0.1601562,0.1884766,0.3564453,0.3378906,0.5888672,0.4501953
			c0.2314453,0.1123047,0.4951172,0.1679688,0.7910156,0.1679688c0.2890625,0,0.5507812-0.0556641,0.7861328-0.1679688
			s0.4306641-0.2636719,0.5820312-0.4560547l0.7568359,0.6835938c-0.2402344,0.2802734-0.5410156,0.4980469-0.9003906,0.6542969
			c-0.3603516,0.15625-0.7675781,0.234375-1.2246094,0.234375c-0.4394531,0-0.8457031-0.0722656-1.2177734-0.2158203
			c-0.3720703-0.1445312-0.6943359-0.3466797-0.9658203-0.6064453s-0.4863281-0.5742188-0.6425781-0.9423828
			c-0.1552734-0.3671875-0.2333984-0.7792969-0.2333984-1.2353506c0-0.4482422,0.0751953-0.8564453,0.2275391-1.2246094
			c0.1523438-0.3671875,0.3642578-0.6835938,0.6367188-0.9472656c0.2714844-0.2646484,0.59375-0.46875,0.9658203-0.6123047
			c0.3720703-0.1445312,0.7744141-0.2158203,1.2060547-0.2158203c0.4003906,0,0.7978516,0.0800781,1.1933594,0.2402344
			c0.3964844,0.1591797,0.7109375,0.3916016,0.9423828,0.6953125L77.0760117,14.2657881z"/>
		<path fill="#FFFFFF" d="M82.0916367,13.7501631h-1.5117188v2.9550772c0,0.3427734,0.0644531,0.5878906,0.1914062,0.7353516
			c0.1289062,0.1474609,0.3320312,0.2216797,0.6123047,0.2216797c0.1044922,0,0.2158203-0.0117188,0.3359375-0.0332031
			c0.1201172-0.0224609,0.2275391-0.0546875,0.3242188-0.0996094l0.0361328,0.9248047
			c-0.1367188,0.0478516-0.2861328,0.0849609-0.4501953,0.1132812s-0.3339844,0.0419922-0.5097656,0.0419922
			c-0.5361328,0-0.9462891-0.1474609-1.2294922-0.4433594c-0.2851562-0.2958984-0.4267578-0.7402344-0.4267578-1.3320312v-3.0839834
			h-1.0917969v-0.9248047h1.0917969v-1.6318359h1.1162109v1.6318359h1.5117188V13.7501631z"/>
		<path fill="#FFFFFF" d="M86.1594696,12.8253584l1.2841797,4.3447256h0.0244141l1.3554688-4.3447256h1.1884766l1.3798828,4.3447256
			h0.0234375l1.2851562-4.3447256h1.1875l-1.8847656,5.6884756h-1.1757812l-1.4042969-4.27246H89.399704l-1.3916016,4.27246
			h-1.1767578l-1.8955078-5.6884756H86.1594696z"/>
		<path fill="#FFFFFF" d="M96.1321259,10.7736006c0,0.2080078-0.0742188,0.3798828-0.2207031,0.5166016
			c-0.1464844,0.1357422-0.3242188,0.2041016-0.5292969,0.2041016c-0.2070312,0-0.3808594-0.0703125-0.5234375-0.2109375
			c-0.1435547-0.1396484-0.2148438-0.3095703-0.2148438-0.5097656c0-0.2080078,0.0712891-0.3818359,0.2148438-0.5214844
			c0.1425781-0.140625,0.3164062-0.2099609,0.5234375-0.2099609c0.2050781,0,0.3828125,0.0693359,0.5292969,0.2099609
			C96.0579071,10.3917646,96.1321259,10.5655928,96.1321259,10.7736006z M95.9514618,18.513834h-1.1279297v-5.6884756h1.1279297
			V18.513834z"/>
		<path fill="#FFFFFF" d="M100.4993134,13.7501631h-1.5117188v2.9550772c0,0.3427734,0.0644531,0.5878906,0.1914062,0.7353516
			c0.1289062,0.1474609,0.3320312,0.2216797,0.6123047,0.2216797c0.1044922,0,0.2158203-0.0117188,0.3359375-0.0332031
			c0.1201172-0.0224609,0.2275391-0.0546875,0.3242188-0.0996094l0.0361328,0.9248047
			c-0.1367188,0.0478516-0.2861328,0.0849609-0.4501953,0.1132812s-0.3339844,0.0419922-0.5097656,0.0419922
			c-0.5361328,0-0.9462891-0.1474609-1.2294922-0.4433594c-0.2851562-0.2958984-0.4267578-0.7402344-0.4267578-1.3320312v-3.0839834
			h-1.0917969v-0.9248047h1.0917969v-1.6318359h1.1162109v1.6318359h1.5117188V13.7501631z"/>
		<path fill="#FFFFFF" d="M102.6360321,13.6896162c0.1357422-0.2792969,0.3671875-0.5195312,0.6953125-0.7197266
			s0.6962891-0.2998047,1.1044922-0.2998047c0.3681641,0,0.6835938,0.0615234,0.9482422,0.1855469
			c0.2636719,0.1240234,0.4833984,0.2900391,0.6601562,0.4980469c0.1757812,0.2080078,0.3046875,0.4521484,0.3886719,0.7324219
			s0.1269531,0.5800781,0.1269531,0.8994141v3.5283194h-1.1289062v-3.1513662c0-0.2324219-0.0175781-0.453125-0.0527344-0.6621094
			c-0.0371094-0.2080078-0.1025391-0.3925781-0.1992188-0.5527344c-0.0957031-0.1611328-0.2255859-0.2890625-0.3896484-0.3857422
			c-0.1640625-0.0957031-0.3779297-0.1445312-0.6416016-0.1445312c-0.4482422,0-0.8164062,0.1708984-1.1035156,0.5117188
			c-0.2890625,0.3408203-0.4326172,0.7958984-0.4326172,1.3652344v3.0195303h-1.1279297V9.4415693h1.1279297v4.2480469H102.6360321z
			"/>
		<path fill="#FFFFFF" d="M111.0828476,18.513834h-1.3193359l3.6835938-8.4960928h1.0800781l3.6484375,8.4960928h-1.3447266
			l-0.8642578-2.0878906h-4.03125L111.0828476,18.513834z M112.3553085,15.381999h3.1796875l-1.5839844-3.984375
			L112.3553085,15.381999z"/>
		<path fill="#FFFFFF" d="M123.0115585,18.513834c-0.0166016-0.1435547-0.0292969-0.3056641-0.0371094-0.4863281
			c-0.0078125-0.1796875-0.0117188-0.3300781-0.0117188-0.4492188h-0.0234375
			c-0.1445312,0.3037109-0.3867188,0.5615234-0.7265625,0.7734375s-0.7177734,0.3183594-1.1337891,0.3183594
			c-0.3681641,0-0.6865234-0.0605469-0.9541016-0.1806641c-0.2675781-0.1191406-0.4882812-0.2851562-0.6601562-0.4980469
			c-0.171875-0.2109375-0.2998047-0.4570312-0.3837891-0.7373047s-0.1259766-0.5800781-0.1259766-0.9003906v-3.5283194h1.1279297
			v3.1445312c0,0.2324209,0.0185547,0.4541006,0.0537109,0.6660147c0.0371094,0.2119141,0.1025391,0.3984375,0.1992188,0.5576172
			c0.0957031,0.1601562,0.2275391,0.2880859,0.3955078,0.3847656c0.1679688,0.0957031,0.3837891,0.1435547,0.6474609,0.1435547
			c0.4570312,0,0.8242188-0.1699219,1.1044922-0.5097656s0.4199219-0.7939453,0.4199219-1.3623037v-3.0244141h1.1279297v4.4648428
			c0,0.1513672,0.0039062,0.3476562,0.0117188,0.5878906c0.0078125,0.2392578,0.0195312,0.4521484,0.0361328,0.6357422H123.0115585z
			"/>
		<path fill="#FFFFFF" d="M128.5662537,13.7501631h-1.5117264v2.9550772c0,0.3427734,0.0644531,0.5878906,0.1923828,0.7353516
			s0.3320312,0.2216797,0.6123047,0.2216797c0.1035156,0,0.2158279-0.0117188,0.3359451-0.0332031
			c0.1191406-0.0224609,0.2275391-0.0546875,0.3242188-0.0996094l0.0351562,0.9248047
			c-0.1357422,0.0478516-0.2851562,0.0849609-0.4492188,0.1132812c-0.1640701,0.0283203-0.333992,0.0419922-0.5097733,0.0419922
			c-0.5371094,0-0.9472656-0.1474609-1.2304688-0.4433594c-0.2841797-0.2958984-0.4257812-0.7402344-0.4257812-1.3320312v-3.0839834
			h-1.0917969v-0.9248047h1.0917969v-1.6318359h1.1152344v1.6318359h1.5117264V13.7501631z"/>
		<path fill="#FFFFFF" d="M135.2869568,15.6573896c0,0.4404287-0.078125,0.8447256-0.234375,1.2128897
			c-0.15625,0.3671875-0.3710938,0.6855469-0.6474609,0.953125c-0.2763672,0.2685547-0.6025391,0.4765625-0.9775391,0.6240234
			c-0.3769531,0.1484375-0.78125,0.2226562-1.2128906,0.2226562s-0.8359375-0.0742188-1.2109375-0.2226562
			c-0.3769531-0.1474609-0.7011719-0.3554688-0.9726562-0.6240234c-0.2714844-0.2675781-0.4863281-0.5859375-0.6425781-0.953125
			c-0.1552734-0.3681641-0.2333984-0.7724609-0.2333984-1.2128897c0-0.4394531,0.078125-0.8417969,0.2333984-1.2050781
			c0.15625-0.3642578,0.3710938-0.6787109,0.6425781-0.9423828s0.5957031-0.4697266,0.9726562-0.6181641
			c0.375-0.1474609,0.7792969-0.2216797,1.2109375-0.2216797s0.8359375,0.0742188,1.2128906,0.2216797
			c0.375,0.1484375,0.7011719,0.3544922,0.9775391,0.6181641s0.4912109,0.578125,0.6474609,0.9423828
			C135.2088318,14.8155928,135.2869568,15.2179365,135.2869568,15.6573896z M134.1111755,15.6642256
			c0-0.2714844-0.0429688-0.53125-0.1269531-0.7783203s-0.2060547-0.4638672-0.3671875-0.6513672
			c-0.1601562-0.1875-0.359375-0.3369141-0.5957031-0.4492188c-0.2363281-0.1113281-0.5078125-0.1679688-0.8125-0.1679688
			s-0.5761719,0.0566406-0.8125,0.1679688c-0.2363281,0.1123047-0.4355469,0.2617188-0.5957031,0.4492188
			s-0.2832031,0.4042969-0.3671875,0.6513672s-0.1269531,0.5068359-0.1269531,0.7783203
			c0,0.2705078,0.0429688,0.5302725,0.1269531,0.7773428s0.2070312,0.4667969,0.3671875,0.6582031
			s0.359375,0.3427734,0.5957031,0.4550781c0.2363281,0.1113281,0.5078125,0.1669922,0.8125,0.1669922
			s0.5761719-0.0556641,0.8125-0.1669922c0.2363281-0.1123047,0.4355469-0.2636719,0.5957031-0.4550781
			c0.1611328-0.1914062,0.2832031-0.4111328,0.3671875-0.6582031S134.1111755,15.9347334,134.1111755,15.6642256z"/>
		<path fill="#FFFFFF" d="M138.4373474,12.9874678c0.3154297-0.2119141,0.6894531-0.3173828,1.1210938-0.3173828
			c0.3847656,0,0.7304688,0.0878906,1.0380859,0.2636719s0.5498047,0.4677734,0.7255859,0.8759766
			c0.1933594-0.3681641,0.4609375-0.6494141,0.8046875-0.8457031s0.7197266-0.2939453,1.1279297-0.2939453
			c0.3681641,0,0.6845703,0.0615234,0.9482422,0.1855469s0.484375,0.2900391,0.6601562,0.4980469
			s0.3056641,0.4521484,0.3896484,0.7324219s0.1259766,0.5800781,0.1259766,0.8994141v3.5283194h-1.1279297v-3.156249
			c0-0.2314453-0.0205078-0.4511719-0.0595703-0.6601562c-0.0410156-0.2080078-0.1083984-0.3916016-0.2050781-0.5517578
			c-0.0957031-0.1601562-0.2236328-0.2880859-0.3828125-0.3837891c-0.1601562-0.0957031-0.3652344-0.1445312-0.6132812-0.1445312
			c-0.2558594,0-0.4755859,0.0546875-0.6591797,0.1621094c-0.1845703,0.1083984-0.3349609,0.2480469-0.4501953,0.4199219
			c-0.1162109,0.1728516-0.2001953,0.3662109-0.2519531,0.5820312c-0.0527344,0.2167969-0.078125,0.4365234-0.078125,0.6601562
			v3.0722647h-1.1279297v-3.3837881c0-0.2236328-0.0205078-0.4277344-0.0595703-0.6123047
			c-0.0410156-0.1835938-0.1083984-0.3417969-0.2050781-0.4736328c-0.0957031-0.1318359-0.21875-0.2363281-0.3710938-0.3125
			s-0.3398438-0.1142578-0.5644531-0.1142578c-0.4160156,0-0.7617188,0.1708984-1.0371094,0.5107422
			c-0.2773438,0.3398438-0.4140625,0.7939453-0.4140625,1.3613281v3.0244131h-1.1289062v-4.4638662
			c0-0.1523438-0.0039062-0.3476562-0.0117188-0.5878906s-0.0195312-0.4521484-0.0361328-0.6367188h1.0683594
			c0.015625,0.1445312,0.0283203,0.3066406,0.0361328,0.4863281s0.0117188,0.3300781,0.0117188,0.4501953h0.0361328
			C137.8904724,13.4581709,138.1209412,13.2003584,138.4373474,12.9874678z"/>
		<path fill="#FFFFFF" d="M150.6228943,14.8302412c0-0.4248047-0.1289062-0.7382812-0.3847656-0.9423828
			s-0.5957031-0.3056641-1.0195312-0.3056641c-0.3203125,0-0.6220703,0.0615234-0.90625,0.1855469
			c-0.2832031,0.1240234-0.5214844,0.2822266-0.7138672,0.4736328l-0.5996094-0.7197266
			c0.2802734-0.2636719,0.6220703-0.4716797,1.0263672-0.6240234c0.4033203-0.1513672,0.8378906-0.2275391,1.3007812-0.2275391
			c0.4082031,0,0.7626953,0.0576172,1.0625,0.1738281c0.3007812,0.1162109,0.546875,0.2744141,0.7382812,0.4736328
			c0.1914062,0.2001953,0.3359375,0.4365234,0.4316406,0.7080078c0.0957031,0.2724609,0.1445312,0.5644531,0.1445312,0.8759766
			v2.484374c0,0.1923828,0.0058594,0.3945312,0.0175781,0.6054688c0.0117188,0.2128906,0.0341797,0.3867188,0.0664062,0.5224609
			h-1.0205078c-0.0634766-0.2714844-0.0957031-0.5439453-0.0957031-0.8164062h-0.0361328
			c-0.2080078,0.3046875-0.4707031,0.5400391-0.7861328,0.7080078s-0.6904297,0.2519531-1.1220703,0.2519531
			c-0.2236328,0-0.4580078-0.0292969-0.7011719-0.0898438c-0.2441406-0.0595703-0.4667969-0.1572266-0.6660156-0.2939453
			c-0.2011719-0.1357422-0.3671875-0.3154297-0.4980469-0.5400391c-0.1328125-0.2236328-0.1992188-0.5-0.1992188-0.828125
			c0-0.4316406,0.1171875-0.7734375,0.3486328-1.0253897c0.2314453-0.2519531,0.5361328-0.4443359,0.9121094-0.5761719
			s0.7998047-0.2177734,1.2724609-0.2578125c0.4716797-0.0400391,0.9472656-0.0605469,1.4277344-0.0605469V14.8302412z
			 M150.3465271,15.8019209c-0.2802734,0-0.5693359,0.0117188-0.8701172,0.0361328
			c-0.2998047,0.0234375-0.5722656,0.0722656-0.8164062,0.1435547c-0.2441406,0.0722647-0.4453125,0.1806631-0.6054688,0.3242178
			s-0.2402344,0.3359375-0.2402344,0.5761719c0,0.1679688,0.0341797,0.3076172,0.1025391,0.4199219
			c0.0673828,0.1123047,0.1572266,0.2041016,0.2705078,0.2763672c0.1113281,0.0712891,0.2353516,0.1220703,0.3710938,0.1494141
			c0.1367188,0.0283203,0.2763672,0.0419922,0.4199219,0.0419922c0.5283203,0,0.9335938-0.1582031,1.21875-0.4736328
			c0.2832031-0.3164062,0.4257812-0.7138672,0.4257812-1.1943359v-0.2998037H150.3465271z"/>
		<path fill="#FFFFFF" d="M156.165863,13.7501631h-1.5117188v2.9550772c0,0.3427734,0.0644531,0.5878906,0.1923828,0.7353516
			s0.3320312,0.2216797,0.6123047,0.2216797c0.1035156,0,0.2158203-0.0117188,0.3359375-0.0332031
			c0.1191406-0.0224609,0.2275391-0.0546875,0.3242188-0.0996094l0.0351562,0.9248047
			c-0.1357422,0.0478516-0.2851562,0.0849609-0.4492188,0.1132812s-0.3339844,0.0419922-0.5097656,0.0419922
			c-0.5371094,0-0.9472656-0.1474609-1.2304688-0.4433594c-0.2841797-0.2958984-0.4257812-0.7402344-0.4257812-1.3320312v-3.0839834
			h-1.0917969v-0.9248047h1.0917969v-1.6318359h1.1152344v1.6318359h1.5117188V13.7501631z"/>
		<path fill="#FFFFFF" d="M158.447113,10.7736006c0,0.2080078-0.0742188,0.3798828-0.2207031,0.5166016
			c-0.1464844,0.1357422-0.3242188,0.2041016-0.5292969,0.2041016c-0.2070312,0-0.3808594-0.0703125-0.5234375-0.2109375
			c-0.1435547-0.1396484-0.2148438-0.3095703-0.2148438-0.5097656c0-0.2080078,0.0712891-0.3818359,0.2148438-0.5214844
			c0.1425781-0.140625,0.3164062-0.2099609,0.5234375-0.2099609c0.2050781,0,0.3828125,0.0693359,0.5292969,0.2099609
			C158.3728943,10.3917646,158.447113,10.5655928,158.447113,10.7736006z M158.266449,18.513834h-1.1279297v-5.6884756h1.1279297
			V18.513834z"/>
		<path fill="#FFFFFF" d="M164.0144958,14.2657881c-0.1201172-0.1835938-0.2998047-0.3378906-0.5400391-0.4619141
			s-0.4960938-0.1865234-0.7675781-0.1865234c-0.296875,0-0.5585938,0.0566406-0.7871094,0.1689453
			c-0.2275391,0.1113281-0.421875,0.2617188-0.5820312,0.4492188c-0.1591797,0.1884766-0.28125,0.40625-0.3652344,0.6542969
			s-0.1259766,0.5078125-0.1259766,0.7802734c0,0.2714844,0.0419922,0.5322256,0.1259766,0.7792959
			c0.0839844,0.2480469,0.2060547,0.4667969,0.3652344,0.6542969c0.1601562,0.1884766,0.3564453,0.3378906,0.5888672,0.4501953
			c0.2314453,0.1123047,0.4951172,0.1679688,0.7919922,0.1679688c0.2880859,0,0.5498047-0.0556641,0.7851562-0.1679688
			c0.2363281-0.1123047,0.4306641-0.2636719,0.5820312-0.4560547l0.7568359,0.6835938
			c-0.2402344,0.2802734-0.5400391,0.4980469-0.9003906,0.6542969s-0.7675781,0.234375-1.2236328,0.234375
			c-0.4404297,0-0.8457031-0.0722656-1.21875-0.2158203c-0.3710938-0.1445312-0.6933594-0.3466797-0.9648438-0.6064453
			c-0.2724609-0.2597656-0.4863281-0.5742188-0.6425781-0.9423828c-0.15625-0.3671875-0.234375-0.7792969-0.234375-1.2353506
			c0-0.4482422,0.0761719-0.8564453,0.2285156-1.2246094c0.1523438-0.3671875,0.3632812-0.6835938,0.6357422-0.9472656
			c0.2724609-0.2646484,0.5947266-0.46875,0.9658203-0.6123047c0.3720703-0.1445312,0.7744141-0.2158203,1.2070312-0.2158203
			c0.3994141,0,0.796875,0.0800781,1.1933594,0.2402344c0.3964844,0.1591797,0.7099609,0.3916016,0.9414062,0.6953125
			L164.0144958,14.2657881z"/>
	</g>
	<g>
		<path fill="#257FB9" d="M170.175827,28.0000057H34.4175797H3.824172c-2.10325,0-3.8241758,1.7999878-3.8241758,3.9999981v20
			c0,2.2000122,1.7209258,4,3.8241758,4h30.5934067H170.175827c2.103241,0,3.824173-1.7999878,3.824173-4v-20
			C174,29.7999935,172.279068,28.0000057,170.175827,28.0000057z"/>
	</g>
	<g>
		<path fill="#FFFFFF" d="M8.9999962,38.022213c0-0.6689377,0.4743872-1.4901505,1.0533705-1.8250771l6.8932524-3.980545
			c0.5793667-0.3346748,1.5273895-0.3346748,2.1068745,0l6.8929996,3.980545
			c0.5791016,0.3349266,1.053503,1.1561394,1.053503,1.8250771v7.9565926c0,0.6690712-0.4744015,1.4906693-1.0540199,1.8249474
			l-6.8922195,3.9797783c-0.5797482,0.3345261-1.527771,0.3345261-2.1076527,0l-6.8923531-3.9797783
			c-0.5793676-0.3342781-1.0537548-1.1558762-1.0537548-1.8249474V38.022213z"/>
		<path fill="#257FB9" d="M20.869915,46.2805061l-0.5740719-1.1571732h-4.6011448l-0.5644894,1.1571732h-2.7476454
			l4.5167475-9.2304802c0.253746-0.5082626,0.6488991-0.7528343,1.1005459-0.7528343
			c0.4519138,0,0.8660736,0.2730064,1.1012077,0.7433968l4.5163517,9.2399178H20.869915z M19.2329159,42.9400597
			l-1.2330589-2.5498505l-1.2323952,2.5498505H19.2329159z"/>
		<path fill="#52B6ED" d="M21.6979733,45.1419449l-3.6981163-7.5181122v2.0700226l2.1077881,4.3286667h-5.2597599
			l3.1519718-6.3986893v-1.0350266c-0.4043255,0.0283127-0.6301556,0.2447052-0.8278027,0.5930672l-4.3002253,8.7788353H14.93256
			L14.3021393,45.16082l0.5457458-1.138298l0.6491642,0.7996254h4.9963112l0.5648861,1.1385612h2.0700359L21.6979733,45.1419449z"/>
	</g>
	<g>
		<path fill="#FFFFFF" d="M44.7967072,45.1935234c-0.3359375,0.4560547-0.7724609,0.8261719-1.3085938,1.1103516
			c-0.5351562,0.2841797-1.1796875,0.4257812-1.9316406,0.4257812c-0.6484375,0-1.2460938-0.1103516-1.7939453-0.3300781
			s-1.0205078-0.5273438-1.4160156-0.9238281c-0.3955078-0.3955078-0.7060547-0.8681641-0.9306641-1.4160156
			c-0.2236328-0.5478516-0.3359375-1.1494141-0.3359375-1.8056641c0-0.6640625,0.1142578-1.2705078,0.3417969-1.8183594
			c0.2285156-0.5478516,0.5449219-1.015625,0.9492188-1.4042969c0.4033203-0.3876953,0.8808594-0.6894531,1.4335938-0.9052734
			c0.5517578-0.2158203,1.1523438-0.3242188,1.7998047-0.3242188c0.2880859,0,0.5800781,0.0283203,0.8759766,0.0839844
			s0.5800781,0.1396484,0.8515625,0.2519531c0.2724609,0.1123047,0.5205078,0.25,0.7441406,0.4140625
			c0.2246094,0.1640625,0.4160156,0.3535156,0.5761719,0.5703125l-0.9355469,0.7197266
			c-0.2089844-0.2880859-0.5019531-0.5263672-0.8828125-0.7138672c-0.3789062-0.1884766-0.7890625-0.2822266-1.2294922-0.2822266
			c-0.4960938,0-0.9423828,0.0898438-1.3378906,0.2695312c-0.3955078,0.1806641-0.734375,0.4267578-1.0146484,0.7382812
			c-0.2792969,0.3125-0.4960938,0.6738281-0.6474609,1.0859375s-0.2275391,0.8505859-0.2275391,1.3144531
			c0,0.4794922,0.0732422,0.9277344,0.2216797,1.34375c0.1474609,0.4160156,0.3603516,0.7783203,0.6357422,1.0859375
			c0.2753906,0.3085938,0.6123047,0.5498047,1.0078125,0.7265625c0.3964844,0.1757812,0.8378906,0.2636719,1.3261719,0.2636719
			c0.4804688,0,0.9160156-0.0957031,1.3085938-0.2880859c0.3916016-0.1923828,0.7148438-0.4716797,0.9716797-0.8398438
			L44.7967072,45.1935234z"/>
		<path fill="#FFFFFF" d="M51.5037384,43.6573906c0,0.4404297-0.078125,0.8447266-0.2333984,1.2128906
			c-0.15625,0.3671875-0.3720703,0.6855469-0.6474609,0.953125c-0.2763672,0.2685547-0.6025391,0.4765625-0.9785156,0.6240234
			c-0.3759766,0.1484375-0.7802734,0.2226562-1.2119141,0.2226562c-0.4326172,0-0.8369141-0.0742188-1.2119141-0.2226562
			c-0.3769531-0.1474609-0.7001953-0.3554688-0.9726562-0.6240234c-0.2714844-0.2675781-0.4853516-0.5859375-0.6416016-0.953125
			c-0.1552734-0.3681641-0.2333984-0.7724609-0.2333984-1.2128906c0-0.4394531,0.078125-0.8417969,0.2333984-1.2050781
			c0.15625-0.3642578,0.3701172-0.6787109,0.6416016-0.9423828c0.2724609-0.2636719,0.5957031-0.4697266,0.9726562-0.6181641
			c0.375-0.1474609,0.7792969-0.2216797,1.2119141-0.2216797c0.4316406,0,0.8359375,0.0742188,1.2119141,0.2216797
			c0.3759766,0.1484375,0.7021484,0.3544922,0.9785156,0.6181641c0.2753906,0.2636719,0.4912109,0.578125,0.6474609,0.9423828
			C51.4256134,42.8155937,51.5037384,43.2179375,51.5037384,43.6573906z M50.3279572,43.6642265
			c0-0.2714844-0.0419922-0.53125-0.1259766-0.7783203c-0.0849609-0.2470703-0.2060547-0.4638672-0.3671875-0.6513672
			s-0.359375-0.3369141-0.5957031-0.4492188c-0.2373047-0.1113281-0.5078125-0.1679688-0.8134766-0.1679688
			c-0.3046875,0-0.5751953,0.0566406-0.8125,0.1679688c-0.2363281,0.1123047-0.4355469,0.2617188-0.5957031,0.4492188
			s-0.2832031,0.4042969-0.3671875,0.6513672s-0.1259766,0.5068359-0.1259766,0.7783203
			c0,0.2705078,0.0419922,0.5302734,0.1259766,0.7773438s0.2070312,0.4667969,0.3671875,0.6582031
			s0.359375,0.3427734,0.5957031,0.4550781c0.2373047,0.1113281,0.5078125,0.1669922,0.8125,0.1669922
			c0.3056641,0,0.5761719-0.0556641,0.8134766-0.1669922c0.2363281-0.1123047,0.4345703-0.2636719,0.5957031-0.4550781
			s0.2822266-0.4111328,0.3671875-0.6582031C50.285965,44.1945,50.3279572,43.9347343,50.3279572,43.6642265z"/>
		<path fill="#FFFFFF" d="M53.8806915,40.8253593c0.015625,0.1445312,0.0273438,0.3066406,0.0351562,0.4863281
			s0.0117188,0.3300781,0.0117188,0.4501953h0.0371094c0.0712891-0.1523438,0.1699219-0.2939453,0.2929688-0.4257812
			c0.125-0.1318359,0.265625-0.2480469,0.4257812-0.3486328c0.1601562-0.0996094,0.3359375-0.1777344,0.5292969-0.2333984
			c0.1914062-0.0556641,0.390625-0.0839844,0.5996094-0.0839844c0.3671875,0,0.6835938,0.0615234,0.9472656,0.1855469
			c0.2646484,0.1240234,0.484375,0.2900391,0.6601562,0.4980469s0.3066406,0.4521484,0.390625,0.7324219
			s0.125,0.5800781,0.125,0.8994141v3.5283203h-1.1269531v-3.15625c0-0.2314453-0.0185547-0.4511719-0.0546875-0.6601562
			c-0.0351562-0.2080078-0.1015625-0.3916016-0.1972656-0.5517578c-0.0966797-0.1601562-0.2285156-0.2880859-0.3964844-0.3837891
			s-0.3837891-0.1445312-0.6484375-0.1445312c-0.4472656,0-0.8134766,0.1708984-1.0976562,0.5107422
			s-0.4257812,0.7939453-0.4257812,1.3613281v3.0244141h-1.1279297v-4.4638672c0-0.1523438-0.0048828-0.3476562-0.0126953-0.5878906
			s-0.0195312-0.4521484-0.0351562-0.6367188H53.8806915z"/>
		<path fill="#FFFFFF" d="M60.6599884,40.8253593c0.015625,0.1445312,0.0273438,0.3066406,0.0351562,0.4863281
			s0.0126953,0.3300781,0.0126953,0.4501953h0.0361328c0.0722656-0.1523438,0.1699219-0.2939453,0.2939453-0.4257812
			s0.265625-0.2480469,0.4257812-0.3486328c0.1601562-0.0996094,0.3359375-0.1777344,0.5283203-0.2333984
			c0.1914062-0.0556641,0.3916016-0.0839844,0.5996094-0.0839844c0.3681641,0,0.6835938,0.0615234,0.9482422,0.1855469
			s0.4833984,0.2900391,0.6601562,0.4980469c0.1757812,0.2080078,0.3056641,0.4521484,0.3896484,0.7324219
			s0.1259766,0.5800781,0.1259766,0.8994141v3.5283203h-1.1279297v-3.15625c0-0.2314453-0.0175781-0.4511719-0.0537109-0.6601562
			c-0.0361328-0.2080078-0.1025391-0.3916016-0.1982422-0.5517578s-0.2285156-0.2880859-0.3964844-0.3837891
			s-0.3828125-0.1445312-0.6474609-0.1445312c-0.4482422,0-0.8134766,0.1708984-1.0986328,0.5107422
			c-0.2832031,0.3398438-0.4257812,0.7939453-0.4257812,1.3613281v3.0244141h-1.1269531v-4.4638672
			c0-0.1523438-0.0048828-0.3476562-0.0126953-0.5878906s-0.0205078-0.4521484-0.0361328-0.6367188H60.6599884z"/>
		<path fill="#FFFFFF" d="M71.7361603,43.6222343c0,0.0634766,0,0.1279297,0,0.1914062
			c0,0.0644531-0.0048828,0.1279297-0.0126953,0.1923828h-4.5244141c0.0078125,0.2382812,0.0625,0.4628906,0.1621094,0.6728516
			c0.1005859,0.2109375,0.234375,0.3935547,0.4023438,0.5488281c0.1679688,0.1542969,0.3613281,0.2753906,0.5820312,0.3632812
			c0.2207031,0.0869141,0.4541016,0.1308594,0.7021484,0.1308594c0.3837891,0,0.7158203-0.0839844,0.9960938-0.2519531
			s0.4990234-0.3720703,0.6591797-0.6123047l0.7929688,0.6367188c-0.3046875,0.4023438-0.6621094,0.6992188-1.0742188,0.8896484
			s-0.8701172,0.2861328-1.3740234,0.2861328c-0.4326172,0-0.8320312-0.0722656-1.2001953-0.2158203
			c-0.3681641-0.1445312-0.6835938-0.3466797-0.9472656-0.6064453c-0.2646484-0.2597656-0.4726562-0.5742188-0.625-0.9423828
			c-0.1523438-0.3671875-0.2275391-0.7753906-0.2275391-1.2236328c0-0.4394531,0.0732422-0.8457031,0.2216797-1.2177734
			s0.3554688-0.6904297,0.6201172-0.9541016s0.5771484-0.4697266,0.9384766-0.6181641
			c0.3603516-0.1474609,0.7490234-0.2216797,1.1660156-0.2216797c0.4160156,0,0.7949219,0.0673828,1.1367188,0.2041016
			c0.3398438,0.1357422,0.6289062,0.3320312,0.8652344,0.5878906s0.4189453,0.5654297,0.546875,0.9296875
			C71.6717072,42.7560234,71.7361603,43.1661797,71.7361603,43.6222343z M70.5838165,43.1661797
			c-0.0078125-0.2246094-0.046875-0.4345703-0.1142578-0.6298828c-0.0673828-0.1962891-0.1679688-0.3662109-0.2998047-0.5107422
			c-0.1328125-0.1435547-0.296875-0.2578125-0.4921875-0.3417969c-0.1962891-0.0839844-0.4257812-0.1259766-0.6894531-0.1259766
			c-0.2402344,0-0.4667969,0.0419922-0.6787109,0.1259766S67.9138947,41.882,67.7576447,42.0255547
			c-0.15625,0.1445312-0.2841797,0.3144531-0.3847656,0.5107422c-0.0996094,0.1953125-0.1572266,0.4052734-0.1738281,0.6298828
			H70.5838165z"/>
		<path fill="#FFFFFF" d="M77.076004,42.265789c-0.1210938-0.1835938-0.3007812-0.3378906-0.5410156-0.4619141
			s-0.4960938-0.1865234-0.7675781-0.1865234c-0.2958984,0-0.5585938,0.0566406-0.7861328,0.1689453
			c-0.2275391,0.1113281-0.421875,0.2617188-0.5820312,0.4492188c-0.1591797,0.1884766-0.2822266,0.40625-0.3662109,0.6542969
			s-0.125,0.5078125-0.125,0.7802734c0,0.2714844,0.0410156,0.5322266,0.125,0.7792969
			c0.0839844,0.2480469,0.2070312,0.4667969,0.3662109,0.6542969c0.1601562,0.1884766,0.3564453,0.3378906,0.5888672,0.4501953
			c0.2314453,0.1123047,0.4951172,0.1679688,0.7910156,0.1679688c0.2890625,0,0.5507812-0.0556641,0.7861328-0.1679688
			s0.4306641-0.2636719,0.5820312-0.4560547l0.7568359,0.6835938c-0.2402344,0.2802734-0.5410156,0.4980469-0.9003906,0.6542969
			c-0.3603516,0.15625-0.7675781,0.234375-1.2246094,0.234375c-0.4394531,0-0.8457031-0.0722656-1.2177734-0.2158203
			c-0.3720703-0.1445312-0.6943359-0.3466797-0.9658203-0.6064453s-0.4863281-0.5742188-0.6425781-0.9423828
			c-0.1552734-0.3671875-0.2333984-0.7792969-0.2333984-1.2353516c0-0.4482422,0.0751953-0.8564453,0.2275391-1.2246094
			c0.1523438-0.3671875,0.3642578-0.6835938,0.6367188-0.9472656c0.2714844-0.2646484,0.59375-0.46875,0.9658203-0.6123047
			c0.3720703-0.1445312,0.7744141-0.2158203,1.2060547-0.2158203c0.4003906,0,0.7978516,0.0800781,1.1933594,0.2402344
			c0.3964844,0.1591797,0.7109375,0.3916016,0.9423828,0.6953125L77.076004,42.265789z"/>
		<path fill="#FFFFFF" d="M82.091629,41.750164h-1.5117188v2.9550781c0,0.3427734,0.0644531,0.5878906,0.1914062,0.7353516
			c0.1289062,0.1474609,0.3320312,0.2216797,0.6123047,0.2216797c0.1044922,0,0.2158203-0.0117188,0.3359375-0.0332031
			c0.1201172-0.0224609,0.2275391-0.0546875,0.3242188-0.0996094l0.0361328,0.9248047
			c-0.1367188,0.0478516-0.2861328,0.0849609-0.4501953,0.1132812s-0.3339844,0.0419922-0.5097656,0.0419922
			c-0.5361328,0-0.9462891-0.1474609-1.2294922-0.4433594c-0.2851562-0.2958984-0.4267578-0.7402344-0.4267578-1.3320312V41.750164
			h-1.0917969v-0.9248047h1.0917969v-1.6318359h1.1162109v1.6318359h1.5117188V41.750164z"/>
		<path fill="#FFFFFF" d="M86.159462,40.8253593l1.2841797,4.3447266h0.0244141l1.3554688-4.3447266h1.1884766l1.3798828,4.3447266
			h0.0234375l1.2851562-4.3447266h1.1875l-1.8847656,5.6884766h-1.1757812l-1.4042969-4.2724609h-0.0234375l-1.3916016,4.2724609
			H86.831337l-1.8955078-5.6884766H86.159462z"/>
		<path fill="#FFFFFF" d="M96.1321182,38.7736015c0,0.2080078-0.0742188,0.3798828-0.2207031,0.5166016
			c-0.1464844,0.1357422-0.3242188,0.2041016-0.5292969,0.2041016c-0.2070312,0-0.3808594-0.0703125-0.5234375-0.2109375
			c-0.1435547-0.1396484-0.2148438-0.3095703-0.2148438-0.5097656c0-0.2080078,0.0712891-0.3818359,0.2148438-0.5214844
			c0.1425781-0.140625,0.3164062-0.2099609,0.5234375-0.2099609c0.2050781,0,0.3828125,0.0693359,0.5292969,0.2099609
			C96.0578995,38.3917656,96.1321182,38.5655937,96.1321182,38.7736015z M95.9514542,46.5138359h-1.1279297v-5.6884766h1.1279297
			V46.5138359z"/>
		<path fill="#FFFFFF" d="M100.4993057,41.750164H98.987587v2.9550781c0,0.3427734,0.0644531,0.5878906,0.1914062,0.7353516
			c0.1289062,0.1474609,0.3320312,0.2216797,0.6123047,0.2216797c0.1044922,0,0.2158203-0.0117188,0.3359375-0.0332031
			c0.1201172-0.0224609,0.2275391-0.0546875,0.3242188-0.0996094l0.0361328,0.9248047
			c-0.1367188,0.0478516-0.2861328,0.0849609-0.4501953,0.1132812s-0.3339844,0.0419922-0.5097656,0.0419922
			c-0.5361328,0-0.9462891-0.1474609-1.2294922-0.4433594c-0.2851562-0.2958984-0.4267578-0.7402344-0.4267578-1.3320312V41.750164
			h-1.0917969v-0.9248047h1.0917969v-1.6318359h1.1162109v1.6318359h1.5117188V41.750164z"/>
		<path fill="#FFFFFF" d="M102.6360245,41.6896172c0.1357422-0.2792969,0.3671875-0.5195312,0.6953125-0.7197266
			s0.6962891-0.2998047,1.1044922-0.2998047c0.3681641,0,0.6835938,0.0615234,0.9482422,0.1855469
			c0.2636719,0.1240234,0.4833984,0.2900391,0.6601562,0.4980469c0.1757812,0.2080078,0.3046875,0.4521484,0.3886719,0.7324219
			s0.1269531,0.5800781,0.1269531,0.8994141v3.5283203h-1.1289062v-3.1513672c0-0.2324219-0.0175781-0.453125-0.0527344-0.6621094
			c-0.0371094-0.2080078-0.1025391-0.3925781-0.1992188-0.5527344c-0.0957031-0.1611328-0.2255859-0.2890625-0.3896484-0.3857422
			c-0.1640625-0.0957031-0.3779297-0.1445312-0.6416016-0.1445312c-0.4482422,0-0.8164062,0.1708984-1.1035156,0.5117188
			c-0.2890625,0.3408203-0.4326172,0.7958984-0.4326172,1.3652344v3.0195312h-1.1279297v-9.0722656h1.1279297v4.2480469H102.6360245
			z"/>
		<path fill="#FFFFFF" d="M111.08284,46.5138359h-1.3193359l3.6835938-8.4960938h1.0800781l3.6484375,8.4960938h-1.3447266
			l-0.8642578-2.0878906h-4.03125L111.08284,46.5138359z M112.3553009,43.382h3.1796875l-1.5839844-3.984375L112.3553009,43.382z"/>
		<path fill="#FFFFFF" d="M123.0115509,46.5138359c-0.0166016-0.1435547-0.0292969-0.3056641-0.0371094-0.4863281
			c-0.0078125-0.1796875-0.0117188-0.3300781-0.0117188-0.4492188h-0.0234375
			c-0.1445312,0.3037109-0.3867188,0.5615234-0.7265625,0.7734375s-0.7177734,0.3183594-1.1337891,0.3183594
			c-0.3681641,0-0.6865234-0.0605469-0.9541016-0.1806641c-0.2675781-0.1191406-0.4882812-0.2851562-0.6601562-0.4980469
			c-0.171875-0.2109375-0.2998047-0.4570312-0.3837891-0.7373047s-0.1259766-0.5800781-0.1259766-0.9003906v-3.5283203h1.1279297
			v3.1445312c0,0.2324219,0.0185547,0.4541016,0.0537109,0.6660156c0.0371094,0.2119141,0.1025391,0.3984375,0.1992188,0.5576172
			c0.0957031,0.1601562,0.2275391,0.2880859,0.3955078,0.3847656c0.1679688,0.0957031,0.3837891,0.1435547,0.6474609,0.1435547
			c0.4570312,0,0.8242188-0.1699219,1.1044922-0.5097656s0.4199219-0.7939453,0.4199219-1.3623047v-3.0244141h1.1279297v4.4648438
			c0,0.1513672,0.0039062,0.3476562,0.0117188,0.5878906c0.0078125,0.2392578,0.0195312,0.4521484,0.0361328,0.6357422H123.0115509z
			"/>
		<path fill="#FFFFFF" d="M128.5662384,41.750164h-1.5117188v2.9550781c0,0.3427734,0.0644531,0.5878906,0.1923828,0.7353516
			s0.3320312,0.2216797,0.6123047,0.2216797c0.1035156,0,0.2158203-0.0117188,0.3359375-0.0332031
			c0.1191406-0.0224609,0.2275391-0.0546875,0.3242188-0.0996094l0.0351562,0.9248047
			c-0.1357422,0.0478516-0.2851562,0.0849609-0.4492188,0.1132812s-0.3339844,0.0419922-0.5097656,0.0419922
			c-0.5371094,0-0.9472656-0.1474609-1.2304688-0.4433594c-0.2841797-0.2958984-0.4257812-0.7402344-0.4257812-1.3320312V41.750164
			h-1.0917969v-0.9248047h1.0917969v-1.6318359h1.1152344v1.6318359h1.5117188V41.750164z"/>
		<path fill="#FFFFFF" d="M135.2869415,43.6573906c0,0.4404297-0.078125,0.8447266-0.234375,1.2128906
			c-0.15625,0.3671875-0.3710938,0.6855469-0.6474609,0.953125c-0.2763672,0.2685547-0.6025391,0.4765625-0.9775391,0.6240234
			c-0.3769531,0.1484375-0.78125,0.2226562-1.2128906,0.2226562s-0.8359375-0.0742188-1.2109375-0.2226562
			c-0.3769531-0.1474609-0.7011719-0.3554688-0.9726562-0.6240234c-0.2714844-0.2675781-0.4863281-0.5859375-0.6425781-0.953125
			c-0.1552734-0.3681641-0.2333984-0.7724609-0.2333984-1.2128906c0-0.4394531,0.078125-0.8417969,0.2333984-1.2050781
			c0.15625-0.3642578,0.3710938-0.6787109,0.6425781-0.9423828s0.5957031-0.4697266,0.9726562-0.6181641
			c0.375-0.1474609,0.7792969-0.2216797,1.2109375-0.2216797s0.8359375,0.0742188,1.2128906,0.2216797
			c0.375,0.1484375,0.7011719,0.3544922,0.9775391,0.6181641s0.4912109,0.578125,0.6474609,0.9423828
			C135.2088165,42.8155937,135.2869415,43.2179375,135.2869415,43.6573906z M134.1111603,43.6642265
			c0-0.2714844-0.0429688-0.53125-0.1269531-0.7783203s-0.2060547-0.4638672-0.3671875-0.6513672
			c-0.1601562-0.1875-0.359375-0.3369141-0.5957031-0.4492188c-0.2363281-0.1113281-0.5078125-0.1679688-0.8125-0.1679688
			s-0.5761719,0.0566406-0.8125,0.1679688c-0.2363281,0.1123047-0.4355469,0.2617188-0.5957031,0.4492188
			s-0.2832031,0.4042969-0.3671875,0.6513672s-0.1269531,0.5068359-0.1269531,0.7783203
			c0,0.2705078,0.0429688,0.5302734,0.1269531,0.7773438s0.2070312,0.4667969,0.3671875,0.6582031
			s0.359375,0.3427734,0.5957031,0.4550781c0.2363281,0.1113281,0.5078125,0.1669922,0.8125,0.1669922
			s0.5761719-0.0556641,0.8125-0.1669922c0.2363281-0.1123047,0.4355469-0.2636719,0.5957031-0.4550781
			c0.1611328-0.1914062,0.2832031-0.4111328,0.3671875-0.6582031S134.1111603,43.9347343,134.1111603,43.6642265z"/>
		<path fill="#FFFFFF" d="M138.4373322,40.9874687c0.3154297-0.2119141,0.6894531-0.3173828,1.1210938-0.3173828
			c0.3847656,0,0.7304688,0.0878906,1.0380859,0.2636719s0.5498047,0.4677734,0.7255859,0.8759766
			c0.1933594-0.3681641,0.4609375-0.6494141,0.8046875-0.8457031s0.7197266-0.2939453,1.1279297-0.2939453
			c0.3681641,0,0.6845703,0.0615234,0.9482422,0.1855469s0.484375,0.2900391,0.6601562,0.4980469
			s0.3056641,0.4521484,0.3896484,0.7324219s0.1259766,0.5800781,0.1259766,0.8994141v3.5283203h-1.1279297v-3.15625
			c0-0.2314453-0.0205078-0.4511719-0.0595703-0.6601562c-0.0410156-0.2080078-0.1083984-0.3916016-0.2050781-0.5517578
			c-0.0957031-0.1601562-0.2236328-0.2880859-0.3828125-0.3837891c-0.1601562-0.0957031-0.3652344-0.1445312-0.6132812-0.1445312
			c-0.2558594,0-0.4755859,0.0546875-0.6591797,0.1621094c-0.1845703,0.1083984-0.3349609,0.2480469-0.4501953,0.4199219
			c-0.1162109,0.1728516-0.2001953,0.3662109-0.2519531,0.5820312c-0.0527344,0.2167969-0.078125,0.4365234-0.078125,0.6601562
			v3.0722656h-1.1279297v-3.3837891c0-0.2236328-0.0205078-0.4277344-0.0595703-0.6123047
			c-0.0410156-0.1835938-0.1083984-0.3417969-0.2050781-0.4736328c-0.0957031-0.1318359-0.21875-0.2363281-0.3710938-0.3125
			s-0.3398438-0.1142578-0.5644531-0.1142578c-0.4160156,0-0.7617188,0.1708984-1.0371094,0.5107422
			c-0.2773438,0.3398438-0.4140625,0.7939453-0.4140625,1.3613281v3.0244141h-1.1289062v-4.4638672
			c0-0.1523438-0.0039062-0.3476562-0.0117188-0.5878906s-0.0195312-0.4521484-0.0361328-0.6367188h1.0683594
			c0.015625,0.1445312,0.0283203,0.3066406,0.0361328,0.4863281s0.0117188,0.3300781,0.0117188,0.4501953h0.0361328
			C137.8904572,41.4581718,138.1209259,41.2003593,138.4373322,40.9874687z"/>
		<path fill="#FFFFFF" d="M150.622879,42.8302422c0-0.4248047-0.1289062-0.7382812-0.3847656-0.9423828
			s-0.5957031-0.3056641-1.0195312-0.3056641c-0.3203125,0-0.6220703,0.0615234-0.90625,0.1855469
			c-0.2832031,0.1240234-0.5214844,0.2822266-0.7138672,0.4736328l-0.5996094-0.7197266
			c0.2802734-0.2636719,0.6220703-0.4716797,1.0263672-0.6240234c0.4033203-0.1513672,0.8378906-0.2275391,1.3007812-0.2275391
			c0.4082031,0,0.7626953,0.0576172,1.0625,0.1738281c0.3007812,0.1162109,0.546875,0.2744141,0.7382812,0.4736328
			c0.1914062,0.2001953,0.3359375,0.4365234,0.4316406,0.7080078c0.0957031,0.2724609,0.1445312,0.5644531,0.1445312,0.8759766
			v2.484375c0,0.1923828,0.0058594,0.3945312,0.0175781,0.6054688c0.0117188,0.2128906,0.0341797,0.3867188,0.0664062,0.5224609
			h-1.0205078c-0.0634766-0.2714844-0.0957031-0.5439453-0.0957031-0.8164062h-0.0361328
			c-0.2080078,0.3046875-0.4707031,0.5400391-0.7861328,0.7080078s-0.6904297,0.2519531-1.1220703,0.2519531
			c-0.2236328,0-0.4580078-0.0292969-0.7011719-0.0898438c-0.2441406-0.0595703-0.4667969-0.1572266-0.6660156-0.2939453
			c-0.2011719-0.1357422-0.3671875-0.3154297-0.4980469-0.5400391c-0.1328125-0.2236328-0.1992188-0.5-0.1992188-0.828125
			c0-0.4316406,0.1171875-0.7734375,0.3486328-1.0253906s0.5361328-0.4443359,0.9121094-0.5761719
			s0.7998047-0.2177734,1.2724609-0.2578125c0.4716797-0.0400391,0.9472656-0.0605469,1.4277344-0.0605469V42.8302422z
			 M150.3465118,43.8019218c-0.2802734,0-0.5693359,0.0117188-0.8701172,0.0361328
			c-0.2998047,0.0234375-0.5722656,0.0722656-0.8164062,0.1435547c-0.2441406,0.0722656-0.4453125,0.1806641-0.6054688,0.3242188
			s-0.2402344,0.3359375-0.2402344,0.5761719c0,0.1679688,0.0341797,0.3076172,0.1025391,0.4199219
			c0.0673828,0.1123047,0.1572266,0.2041016,0.2705078,0.2763672c0.1113281,0.0712891,0.2353516,0.1220703,0.3710938,0.1494141
			c0.1367188,0.0283203,0.2763672,0.0419922,0.4199219,0.0419922c0.5283203,0,0.9335938-0.1582031,1.21875-0.4736328
			c0.2832031-0.3164062,0.4257812-0.7138672,0.4257812-1.1943359v-0.2998047H150.3465118z"/>
		<path fill="#FFFFFF" d="M156.1658478,41.750164h-1.5117188v2.9550781c0,0.3427734,0.0644531,0.5878906,0.1923828,0.7353516
			s0.3320312,0.2216797,0.6123047,0.2216797c0.1035156,0,0.2158203-0.0117188,0.3359375-0.0332031
			c0.1191406-0.0224609,0.2275391-0.0546875,0.3242188-0.0996094l0.0351562,0.9248047
			c-0.1357422,0.0478516-0.2851562,0.0849609-0.4492188,0.1132812s-0.3339844,0.0419922-0.5097656,0.0419922
			c-0.5371094,0-0.9472656-0.1474609-1.2304688-0.4433594c-0.2841797-0.2958984-0.4257812-0.7402344-0.4257812-1.3320312V41.750164
			h-1.0917969v-0.9248047h1.0917969v-1.6318359h1.1152344v1.6318359h1.5117188V41.750164z"/>
		<path fill="#FFFFFF" d="M158.4470978,38.7736015c0,0.2080078-0.0742188,0.3798828-0.2207031,0.5166016
			c-0.1464844,0.1357422-0.3242188,0.2041016-0.5292969,0.2041016c-0.2070312,0-0.3808594-0.0703125-0.5234375-0.2109375
			c-0.1435547-0.1396484-0.2148438-0.3095703-0.2148438-0.5097656c0-0.2080078,0.0712891-0.3818359,0.2148438-0.5214844
			c0.1425781-0.140625,0.3164062-0.2099609,0.5234375-0.2099609c0.2050781,0,0.3828125,0.0693359,0.5292969,0.2099609
			C158.372879,38.3917656,158.4470978,38.5655937,158.4470978,38.7736015z M158.2664337,46.5138359h-1.1279297v-5.6884766h1.1279297
			V46.5138359z"/>
		<path fill="#FFFFFF" d="M164.0144806,42.265789c-0.1201172-0.1835938-0.2998047-0.3378906-0.5400391-0.4619141
			s-0.4960938-0.1865234-0.7675781-0.1865234c-0.296875,0-0.5585938,0.0566406-0.7871094,0.1689453
			c-0.2275391,0.1113281-0.421875,0.2617188-0.5820312,0.4492188c-0.1591797,0.1884766-0.28125,0.40625-0.3652344,0.6542969
			s-0.1259766,0.5078125-0.1259766,0.7802734c0,0.2714844,0.0419922,0.5322266,0.1259766,0.7792969
			c0.0839844,0.2480469,0.2060547,0.4667969,0.3652344,0.6542969c0.1601562,0.1884766,0.3564453,0.3378906,0.5888672,0.4501953
			c0.2314453,0.1123047,0.4951172,0.1679688,0.7919922,0.1679688c0.2880859,0,0.5498047-0.0556641,0.7851562-0.1679688
			c0.2363281-0.1123047,0.4306641-0.2636719,0.5820312-0.4560547l0.7568359,0.6835938
			c-0.2402344,0.2802734-0.5400391,0.4980469-0.9003906,0.6542969s-0.7675781,0.234375-1.2236328,0.234375
			c-0.4404297,0-0.8457031-0.0722656-1.21875-0.2158203c-0.3710938-0.1445312-0.6933594-0.3466797-0.9648438-0.6064453
			c-0.2724609-0.2597656-0.4863281-0.5742188-0.6425781-0.9423828c-0.15625-0.3671875-0.234375-0.7792969-0.234375-1.2353516
			c0-0.4482422,0.0761719-0.8564453,0.2285156-1.2246094c0.1523438-0.3671875,0.3632812-0.6835938,0.6357422-0.9472656
			c0.2724609-0.2646484,0.5947266-0.46875,0.9658203-0.6123047c0.3720703-0.1445312,0.7744141-0.2158203,1.2070312-0.2158203
			c0.3994141,0,0.796875,0.0800781,1.1933594,0.2402344c0.3964844,0.1591797,0.7099609,0.3916016,0.9414062,0.6953125
			L164.0144806,42.265789z"/>
	</g>
</g>
</svg>
